<svg xmlns="http://www.w3.org/2000/svg" width="1920" height="1060" viewBox="0 0 1920 1060" fill="none"><path d="M964.631 -327.521C981.844 -322.632 999.322 -318.408 1017.1 -314.947C1130.13 -292.915 1246.32 -295.214 1344.26 -321.426C1386.23 -332.656 1423.88 -349.447 1456.16 -371.337C1461.62 -375.041 1467.13 -378.87 1472.45 -382.575C1491.66 -395.943 1511.53 -409.766 1533.12 -420.243C1561.33 -433.929 1589.48 -440.938 1619.19 -441.688C1688.42 -443.426 1765.47 -411.492 1854.73 -344.067C1973.1 -254.648 2062.98 -146.746 2121.89 -23.3369L2125.07 -24.2514C2095.47 -86.266 2057.37 -145.286 2011.84 -199.672C1967.22 -252.972 1915.06 -302.311 1856.79 -346.323C1816.45 -376.799 1779.83 -399.427 1744.83 -415.51C1700.42 -435.917 1657.98 -445.765 1618.68 -444.78C1588.45 -444.022 1559.83 -436.9 1531.18 -423.002C1509.37 -412.422 1489.41 -398.534 1470.11 -385.098C1464.79 -381.396 1459.29 -377.577 1453.84 -373.883C1421.85 -352.187 1384.52 -335.536 1342.9 -324.401C1245.49 -298.334 1129.9 -296.052 1017.44 -317.973C886.396 -343.513 770.851 -410.809 665.516 -479.728C642.003 -495.109 618.211 -511.159 595.198 -526.686C525.88 -573.442 454.208 -621.789 378.357 -660.061C341.67 -678.569 302.314 -693.339 258.055 -705.194C221.467 -714.995 181.687 -722.819 132.859 -729.814L122.048 -731.361C57.9498 -740.522 -8.32335 -749.995 -72.8437 -765.842C-118.298 -777.008 -163.898 -791.087 -207.993 -804.695C-227.799 -810.809 -248.275 -817.132 -268.477 -823.108L-269.208 -820.18C-249.027 -814.21 -228.564 -807.891 -208.773 -801.781C-164.617 -788.15 -118.963 -774.055 -73.3843 -762.86C-8.66627 -746.957 57.7133 -737.473 121.911 -728.302L132.722 -726.755C206.443 -716.196 293.109 -699.703 376.941 -657.409C452.559 -619.26 524.125 -570.987 593.328 -524.301C616.348 -508.772 640.153 -492.718 663.698 -477.316C755.137 -417.492 854.266 -358.877 964.641 -327.53L964.631 -327.521Z" fill="white" fill-opacity="0.1"></path><path d="M939.246 -314.292C952.198 -310.614 965.097 -307.426 977.985 -304.712C1087.62 -281.648 1209.67 -281.416 1321.65 -304.06C1368.81 -313.595 1411.67 -328.028 1449.02 -346.947C1463.27 -354.158 1476.74 -362.973 1489.77 -371.502C1504.27 -381 1519.28 -390.814 1535.24 -398.314C1565.57 -412.566 1594.36 -419.942 1623.28 -420.859C1709.02 -423.574 1791.42 -367.806 1861.91 -315.319C1971.57 -233.676 2058.49 -130.449 2120.26 -8.51192L2123.4 -9.49015C2061.38 -131.931 1974.09 -235.591 1863.95 -317.595C1828.76 -343.789 1790.7 -370.808 1750.76 -390.999C1704.39 -414.427 1662.52 -425.211 1622.74 -423.954C1593.33 -423.021 1564.08 -415.542 1533.34 -401.089C1517.18 -393.493 1502.09 -383.616 1487.5 -374.069C1474.54 -365.589 1461.14 -356.818 1447.04 -349.677C1409.94 -330.892 1367.37 -316.559 1320.5 -307.08C1209.01 -284.535 1087.51 -284.76 978.385 -307.716C849.199 -334.893 737.927 -407.207 643.777 -472.85C624.686 -486.16 605.317 -499.963 586.597 -513.306C517.057 -562.868 445.156 -614.116 368.081 -654.061C331.724 -672.907 292.663 -687.493 248.68 -698.663C212.366 -707.88 172.782 -714.794 124.106 -720.416C117.27 -721.205 110.434 -721.988 103.602 -722.764C43.0135 -729.677 -19.6372 -736.825 -80.7367 -750.821C-136.12 -763.506 -191.25 -781.478 -244.562 -798.86C-254.226 -802.011 -264.221 -805.269 -274.06 -808.445L-274.893 -805.551C-265.06 -802.377 -255.072 -799.121 -245.409 -795.97C-192.008 -778.563 -136.791 -760.559 -81.2205 -747.834C-19.8999 -733.788 42.8708 -726.625 103.566 -719.7C110.396 -718.919 117.234 -718.141 124.063 -717.354C197.467 -708.874 283.683 -694.42 366.606 -651.437C443.421 -611.623 515.205 -560.464 584.626 -510.985C603.358 -497.633 622.727 -483.83 641.842 -470.501C688.021 -438.309 743.158 -401.233 802.028 -370.321C849.408 -345.439 894.639 -326.953 939.244 -314.286L939.246 -314.292Z" fill="white" fill-opacity="0.1"></path><path d="M911.494 -300.695C920.487 -298.143 929.457 -295.86 938.436 -293.833C1071.71 -263.775 1205.89 -273.987 1294.98 -287.848C1347.36 -295.99 1395.6 -308.623 1438.4 -325.389C1462.63 -334.884 1485.95 -346.566 1508.5 -357.864C1518.1 -362.671 1528.01 -367.638 1537.84 -372.36C1562.77 -384.327 1593.06 -396.61 1628.72 -396.975C1662.13 -397.314 1700.53 -386.506 1746.14 -363.922C1785.88 -344.244 1826.89 -318.847 1868.02 -288.44C1968.99 -213.797 2053.18 -114.469 2118.27 6.77992L2121.38 5.72257C2089.79 -53.1111 2053.47 -107.257 2013.43 -155.199C1970.66 -206.414 1922.42 -252.013 1870.04 -290.728C1828.72 -321.279 1787.5 -346.805 1747.54 -366.588C1701.33 -389.468 1662.32 -400.417 1628.26 -400.073C1591.9 -399.7 1561.18 -387.258 1535.91 -375.13C1526.06 -370.396 1516.12 -365.421 1506.52 -360.61C1484.04 -349.344 1460.78 -337.701 1436.68 -328.255C1394.12 -311.581 1346.11 -299.011 1293.99 -290.905C1205.22 -277.097 1071.55 -266.919 938.888 -296.836C819.005 -323.879 716.982 -394.81 622.763 -465.146C608 -476.171 592.996 -487.534 578.487 -498.524C508.875 -551.263 436.892 -605.792 358.532 -647.495C276.223 -691.299 189.73 -703.975 115.976 -710.594C106.004 -711.492 95.8651 -712.361 86.0554 -713.206C28.8793 -718.132 -30.2372 -723.22 -87.994 -735.453C-152.984 -749.218 -216.999 -771.586 -278.902 -793.224L-279.831 -790.356C-217.8 -768.676 -153.658 -746.258 -88.4101 -732.445C-30.4105 -720.162 28.8343 -715.063 86.1318 -710.128C95.9348 -709.285 106.072 -708.41 116.037 -707.514C189.385 -700.929 275.367 -688.341 357.016 -644.882C435.084 -603.33 506.938 -548.901 576.42 -496.262C590.935 -485.264 605.944 -473.893 620.72 -462.864C667.598 -427.869 718.246 -391.339 771.04 -361.241C819.439 -333.646 865.645 -313.709 911.472 -300.695L911.494 -300.695Z" fill="white" fill-opacity="0.1"></path><path d="M882.005 -288.263C887.705 -286.646 893.391 -285.152 899.091 -283.779C959.399 -269.226 1022.01 -265.968 1075.31 -264.699C1140.17 -263.157 1203.95 -266.039 1264.85 -273.263C1322.34 -280.083 1376.2 -291.122 1424.94 -306.078C1452.94 -314.667 1480.31 -325.417 1506.79 -335.808C1516.48 -339.616 1526.51 -343.551 1536.41 -347.318C1566.5 -358.771 1599.27 -369.273 1635.01 -368.546C1719.98 -366.817 1806.72 -310.899 1872.8 -262.372C1966.44 -193.615 2046.1 -100.811 2116.35 21.347L2119.41 20.2141C2085.77 -38.28 2051.01 -88.6897 2013.15 -133.894C1971.04 -184.176 1924.5 -228.173 1874.82 -264.65C1808.25 -313.54 1720.79 -369.875 1634.68 -371.622C1598.31 -372.357 1565.15 -361.749 1534.74 -350.168C1524.83 -346.391 1514.79 -342.455 1505.08 -338.642C1478.67 -328.271 1451.35 -317.55 1423.47 -308.995C1374.93 -294.102 1321.28 -283.104 1264 -276.31C1203.28 -269.106 1139.68 -266.235 1074.99 -267.777C1021.91 -269.041 959.558 -272.282 899.627 -286.741C789.233 -313.386 699.569 -379.842 602.111 -457.506C591.575 -465.902 580.851 -474.52 570.483 -482.856C500.751 -538.896 428.644 -596.84 348.71 -640.274C267.254 -684.533 180.94 -695.49 107.256 -700.364C95.6102 -701.134 83.7557 -701.852 72.2955 -702.545C17.0947 -705.878 -39.9919 -709.327 -95.8969 -720.243C-162.525 -733.257 -228.163 -756.912 -284.454 -778.06L-285.475 -775.236C-229.024 -754.024 -163.191 -730.301 -96.2493 -717.23C-40.0796 -706.263 17.1366 -702.809 72.4726 -699.463C83.9259 -698.771 95.7736 -698.056 107.406 -697.289C180.645 -692.441 266.412 -681.571 347.158 -637.694C426.769 -594.433 498.728 -536.606 568.321 -480.681C578.696 -472.343 589.426 -463.723 599.961 -455.321C646.111 -418.543 691.576 -383.029 740.346 -352.816C789.052 -322.641 835.581 -301.423 882.01 -288.255L882.005 -288.263Z" fill="white" fill-opacity="0.1"></path><path d="M853.682 -275.58C856.327 -274.83 858.959 -274.115 861.603 -273.422C919.106 -258.39 978.923 -255.485 1035.27 -253.796C1101.41 -251.813 1167.9 -253.87 1232.88 -259.901C1294.9 -265.66 1353.51 -275.187 1407.09 -288.212C1438.74 -295.908 1470.04 -305.622 1500.32 -315.017C1510.71 -318.244 1521.46 -321.577 1532.05 -324.779C1565.72 -334.954 1602 -344.167 1639.24 -342.757C1729.32 -339.334 1818.04 -281.43 1876.94 -238.177C1963.85 -174.344 2037.14 -89.8747 2114.57 35.7177L2117.58 34.4977C2081.75 -23.6126 2047.41 -72.0521 2012.57 -113.595C1970.41 -163.896 1926.7 -205.39 1878.95 -240.451C1837.49 -270.905 1800.33 -293.908 1765.36 -310.778C1720.18 -332.572 1677.66 -344.368 1638.97 -345.835C1601.19 -347.271 1564.55 -337.974 1530.59 -327.709C1519.98 -324.505 1509.22 -321.169 1498.83 -317.942C1468.61 -308.564 1437.35 -298.867 1405.81 -291.198C1352.39 -278.208 1293.95 -268.713 1232.11 -262.971C1167.28 -256.949 1100.95 -254.902 1034.97 -256.877C978.86 -258.555 919.302 -261.449 862.209 -276.371C859.586 -277.058 856.968 -277.769 854.371 -278.505C748.554 -308.499 665.132 -379.625 584.388 -448.469L583.061 -449.6C576.581 -455.126 570.097 -460.671 563.589 -466.236C493.831 -525.924 421.699 -587.64 339.981 -632.904C301.405 -654.268 262.753 -668.631 221.809 -676.804C186.761 -683.798 148.999 -687.911 99.3748 -690.129C86.4797 -690.707 73.358 -691.187 60.6687 -691.651C7.00046 -693.618 -48.4903 -695.658 -102.972 -705.452C-170.388 -717.57 -234.905 -741.518 -289.13 -763.342L-290.243 -760.561C-235.825 -738.658 -171.053 -714.619 -103.267 -702.434C-48.5063 -692.592 7.12908 -690.548 60.9337 -688.573C73.6149 -688.106 86.7298 -687.628 99.6098 -687.048C149.025 -684.838 186.598 -680.755 221.436 -673.795C261.949 -665.707 300.207 -651.493 338.403 -630.337C419.754 -585.276 491.728 -523.693 561.336 -464.141C567.837 -458.578 574.326 -453.025 580.807 -447.499L582.134 -446.368C623.582 -411.032 666.439 -374.486 711.931 -343.852C760.342 -311.249 806.799 -288.862 853.681 -275.574L853.682 -275.58Z" fill="white" fill-opacity="0.1"></path><path d="M824.076 -261.745C824.622 -261.591 825.167 -261.436 825.719 -261.28C878.288 -246.659 932.64 -243.795 993.141 -241.776C1060.14 -239.54 1129.39 -241.036 1198.99 -246.233C1305.56 -254.186 1406.18 -274.774 1524.48 -303.239C1559.27 -311.608 1599.84 -320.358 1641 -318.116C1712.58 -314.219 1790.73 -280.28 1879.93 -214.346C1972.36 -146.031 2039.79 -58.7496 2112.61 51.2807L2115.56 49.9675C2086.84 6.57346 2051.99 -44.3338 2011.31 -92.8469C1969.5 -142.705 1927.19 -183.19 1881.97 -216.618C1842.23 -245.993 1803.82 -269.45 1767.82 -286.342C1723.11 -307.317 1680.38 -319.044 1640.8 -321.195C1599.13 -323.464 1558.26 -314.656 1523.21 -306.222C1405.08 -277.796 1304.62 -257.236 1198.3 -249.301C1128.84 -244.115 1059.73 -242.617 992.868 -244.851C932.635 -246.864 878.532 -249.707 826.4 -264.204C825.861 -264.356 825.316 -264.511 824.784 -264.662C725.537 -292.783 650.058 -361.894 577.045 -428.751C572.886 -432.559 568.727 -436.367 564.573 -440.162L556.431 -447.597C486.746 -511.256 414.691 -577.085 330.957 -624.124C295.683 -643.938 257.265 -657.834 213.502 -666.605C178.47 -673.627 139.457 -677.485 90.7321 -678.736C76.932 -679.091 62.8886 -679.31 49.301 -679.518C-3.22791 -680.335 -57.5388 -681.182 -110.98 -690.053C-165.871 -699.159 -222.571 -717.087 -294.827 -748.18L-296.033 -745.435C-223.452 -714.207 -166.454 -696.189 -111.22 -687.022C-57.4844 -678.105 -3.02067 -677.259 49.6529 -676.439C63.2255 -676.229 77.262 -676.012 91.0403 -675.656C164.641 -673.766 250.507 -665.865 329.353 -621.573C412.677 -574.77 484.559 -509.102 554.076 -445.591L562.217 -438.156C566.372 -434.361 570.532 -430.559 574.684 -426.752C648.044 -359.579 723.895 -290.131 824.09 -261.741L824.076 -261.745Z" fill="white" fill-opacity="0.1"></path><path d="M797.36 -247.209C849.07 -232.559 903.842 -230.892 956.867 -229.276L957.906 -229.245C1023.51 -227.243 1093.29 -228.525 1165.32 -233.042C1285.98 -240.613 1399.62 -261.173 1515.1 -283.386C1554.99 -291.059 1597.59 -298.295 1641.35 -295.3C1716.29 -290.167 1797.38 -255.331 1882.37 -191.746C1977.84 -120.316 2045.45 -25.3088 2110.82 66.5707L2113.7 65.1527C2048.16 -26.9626 1980.38 -122.212 1884.42 -194.006C1845.6 -223.045 1806.89 -246.47 1769.35 -263.63C1725.01 -283.898 1681.9 -295.587 1641.21 -298.375C1597 -301.405 1554.11 -294.123 1513.98 -286.404C1398.62 -264.221 1285.1 -243.675 1164.67 -236.122C1092.77 -231.608 1023.1 -230.338 957.615 -232.33L956.575 -232.362C902.662 -234.004 846.904 -235.712 794.735 -251.099C702.57 -278.299 634.595 -345.341 568.864 -410.177C562.274 -416.68 555.452 -423.405 548.749 -429.952C483.489 -493.672 409.528 -565.889 323.724 -614.471C288.657 -634.322 250.235 -648.004 206.252 -656.286C171.354 -662.857 132.382 -666.141 83.594 -666.606C69.2106 -666.746 54.5676 -666.709 40.4061 -666.68C-11.3028 -666.565 -64.7646 -666.447 -117.462 -674.583C-172.944 -683.15 -230.606 -701.764 -298.917 -733.141L-300.216 -730.432C-231.538 -698.881 -173.529 -680.169 -117.656 -671.534C-64.6503 -663.349 -11.0288 -663.466 40.8329 -663.581C54.9807 -663.614 69.6156 -663.647 83.9703 -663.509C157.926 -662.795 244.051 -656.112 322.125 -611.909C407.467 -563.589 481.234 -491.565 546.315 -428.014C553.013 -421.474 559.828 -414.752 566.418 -408.249C632.51 -343.06 700.842 -275.654 794.015 -248.163C795.13 -247.834 796.26 -247.508 797.378 -247.191L797.36 -247.209Z" fill="white" fill-opacity="0.1"></path><path d="M773.292 -232.667C819.668 -219.531 868.896 -218.238 916.592 -216.985L923.216 -216.81C987.932 -215.072 1056.18 -216.219 1131.89 -220.307C1258 -227.115 1382.74 -246.001 1503.37 -264.263L1503.54 -264.289C1546.91 -270.853 1593.15 -276.94 1639.78 -273.092C1738.99 -264.91 1827.2 -212.177 1883.73 -169.385C1963.92 -108.676 2024.61 -29.2598 2083.3 47.5423C2091.75 58.6142 2100.51 70.0629 2109.16 81.2588L2111.96 79.7392C2103.3 68.549 2094.56 57.1042 2086.1 46.0382C2027.25 -30.9641 1966.41 -110.588 1885.79 -171.621C1828.82 -214.745 1739.88 -267.89 1639.68 -276.154C1592.63 -280.032 1546.15 -273.915 1502.56 -267.321L1502.38 -267.296C1381.83 -249.047 1257.18 -230.179 1131.26 -223.375C1055.66 -219.295 987.501 -218.152 922.893 -219.884L916.269 -220.06C866.441 -221.368 814.929 -222.717 767.069 -237.637C681.053 -264.448 619.158 -329.758 559.302 -392.92C551.132 -401.538 542.689 -410.45 534.382 -419.044C463.042 -492.84 397.406 -557.634 316.491 -603.249C238.125 -647.432 150.909 -653.3 75.9288 -653.212C61.2557 -653.195 46.3107 -652.981 31.8554 -652.778C-19.3518 -652.053 -72.3019 -651.306 -124.562 -658.989C-181.032 -667.285 -237.966 -686.121 -303.735 -718.253L-305.123 -715.6C-238.948 -683.273 -181.628 -664.321 -124.723 -655.958C-72.1465 -648.228 -19.0287 -648.978 32.3313 -649.703C46.7716 -649.904 61.7015 -650.116 76.3529 -650.133C150.801 -650.217 237.371 -644.413 314.89 -600.706C395.329 -555.357 460.745 -490.769 531.863 -417.204C540.152 -408.628 548.596 -399.721 556.755 -391.113C616.967 -327.582 679.235 -261.88 766.28 -234.746C768.602 -234.02 770.947 -233.325 773.284 -232.663L773.292 -232.667Z" fill="white" fill-opacity="0.1"></path><path d="M752.064 -215.054C794.029 -203.166 838.672 -202.441 881.947 -201.741C885.17 -201.689 888.372 -201.637 891.566 -201.582C954.202 -200.472 1020.15 -201.864 1099.11 -205.947C1214.6 -211.927 1329.9 -226.028 1441.4 -239.667C1457.69 -241.658 1473.98 -243.653 1490.29 -245.624C1537 -251.271 1586.79 -256.392 1636.7 -251.739C1742.54 -241.873 1829.66 -189.395 1884.11 -147.12C1952.79 -93.7841 2006.96 -26.3611 2059.34 38.8427C2074.91 58.2121 2091 78.2427 2107.23 97.6025L2109.93 95.9657C2093.73 76.6332 2077.65 56.6239 2062.1 37.2701C2009.58 -28.1029 1955.26 -95.705 1886.22 -149.325C1848.79 -178.39 1809.09 -202.143 1768.24 -219.921C1724.35 -239.018 1680.08 -250.753 1636.65 -254.799C1586.35 -259.486 1536.33 -254.345 1489.41 -248.68C1473.1 -246.709 1456.81 -244.72 1440.53 -242.723C1329.09 -229.09 1213.86 -214.997 1098.5 -209.028C1019.63 -204.942 953.772 -203.558 891.23 -204.666C888.036 -204.722 884.828 -204.776 881.604 -204.828C835.41 -205.574 787.639 -206.355 743.609 -220.776C662.03 -247.499 604.536 -312.333 548.938 -375.025C539.881 -385.236 530.519 -395.79 521.333 -405.851C492.836 -437.03 459.409 -473.057 423.278 -506.03C384.098 -541.776 346.785 -569.323 309.186 -590.248C230.922 -633.808 143.132 -638.96 67.5837 -638.254C52.9138 -638.116 37.9639 -637.776 23.5118 -637.451C-27.5879 -636.291 -80.4354 -635.09 -132.601 -642.534C-189.079 -650.593 -246.975 -670.365 -309.602 -702.973L-311.087 -700.366C-248.034 -667.531 -189.698 -647.623 -132.748 -639.498C-80.2524 -632.005 -27.244 -633.21 24.0168 -634.374C38.4551 -634.703 53.3901 -635.041 68.0381 -635.179C143.061 -635.878 230.188 -630.783 307.605 -587.7C389.058 -542.368 453.959 -474.988 518.733 -404.104C527.903 -394.066 537.259 -383.52 546.304 -373.318C602.258 -310.225 660.107 -244.985 742.759 -217.908C745.851 -216.895 748.951 -215.948 752.073 -215.063L752.064 -215.054Z" fill="white" fill-opacity="0.1"></path><path d="M736.346 -196.783C774.617 -185.939 815.325 -185.886 854.804 -185.831C858.431 -185.822 862.037 -185.82 865.618 -185.806C924.612 -185.586 987.392 -187.459 1069.17 -191.878C1171.19 -197.395 1273.75 -207.915 1372.92 -218.086C1406.89 -221.574 1442.02 -225.176 1476.61 -228.526C1526.44 -233.349 1579.56 -237.603 1633.05 -232.126C1721.33 -223.091 1808.13 -186.446 1884.08 -126.148C1943.2 -79.212 1991.59 -21.2756 2038.39 34.756C2060.04 60.6838 2082.44 87.5037 2105.63 112.917L2108.23 111.152C2085.09 85.7966 2062.72 59.0157 2041.09 33.1131C1994.17 -23.0665 1945.64 -81.1588 1886.21 -128.34C1849.07 -157.825 1808.86 -181.936 1766.71 -200C1722.97 -218.75 1677.98 -230.588 1633.03 -235.19C1579.18 -240.705 1525.84 -236.433 1475.82 -231.595C1441.22 -228.244 1406.08 -224.641 1372.1 -221.155C1272.97 -210.986 1170.47 -200.47 1068.53 -194.959C986.831 -190.544 924.116 -188.672 865.203 -188.893C861.615 -188.91 858.002 -188.914 854.374 -188.916C811.631 -188.977 767.433 -189.031 726.85 -202.875C647.992 -229.772 593.243 -295.036 540.293 -358.153C530.389 -369.958 521.031 -381.114 511.445 -392.11C451.648 -460.706 386.333 -531.441 303.462 -576.39C225.053 -618.918 136.565 -623.642 60.3424 -622.646C46.0607 -622.459 31.5015 -622.081 17.4253 -621.717C-33.9848 -620.388 -87.1442 -619.01 -139.6 -626.526C-196.727 -634.708 -253.919 -655.009 -314.443 -688.592L-316.028 -686.027C-255.048 -652.19 -197.391 -631.732 -139.758 -623.475C-86.9706 -615.916 -33.6434 -617.296 17.9277 -618.63C31.9888 -618.992 46.5344 -619.373 60.7929 -619.554C136.49 -620.543 224.338 -615.875 301.907 -573.798C384.179 -529.175 449.22 -458.73 508.782 -390.401C518.344 -379.43 527.692 -368.29 537.583 -356.495C563.758 -325.297 590.823 -293.033 621.32 -265.157C655.915 -233.53 690.137 -212.214 725.941 -200C729.373 -198.827 732.83 -197.754 736.306 -196.769L736.346 -196.783Z" fill="white" fill-opacity="0.1"></path><path d="M727.416 -176.498C761.738 -166.772 798.228 -167.467 833.635 -168.137C837.537 -168.21 841.417 -168.283 845.27 -168.339C911.693 -169.346 979.034 -172.956 1041.91 -176.702C1128.02 -181.831 1215.04 -189.607 1299.2 -197.129C1352.55 -201.895 1407.72 -206.827 1462.05 -211.027C1512.24 -214.905 1570.61 -218.512 1628.18 -212.123C1720.73 -201.851 1808.82 -164.643 1882.93 -104.518C1934.16 -62.9621 1977.48 -12.9594 2019.38 35.4004C2046.33 66.4963 2074.19 98.6519 2103.96 128.372L2106.44 126.492C2076.77 96.8672 2048.94 64.768 2022.05 33.7227C1980.04 -14.7596 1936.6 -64.8907 1885.11 -106.665C1810.38 -167.289 1721.55 -204.807 1628.2 -215.168C1570.28 -221.593 1511.7 -217.978 1461.33 -214.086C1406.99 -209.886 1351.8 -204.952 1298.44 -200.182C1214.31 -192.666 1127.31 -184.888 1041.26 -179.761C978.43 -176.016 911.134 -172.411 844.792 -171.407C840.937 -171.345 837.05 -171.274 833.142 -171.202C794.168 -170.463 753.866 -169.702 717.029 -182.96C638.589 -211.201 581.507 -281.247 531.143 -343.051C521.671 -354.674 512.724 -365.649 503.621 -376.426C475.441 -409.78 444.622 -445.093 410.234 -477.388C372.432 -512.883 335.546 -539.722 297.482 -559.417C261.7 -577.934 222.253 -590.36 176.882 -597.397C141.184 -602.941 102.815 -605.174 52.4707 -604.645C38.973 -604.503 25.2199 -604.202 11.913 -603.912C-40.2624 -602.772 -94.2146 -601.593 -147.365 -609.544C-205.04 -618.172 -261.571 -639.175 -320.18 -673.761L-321.859 -671.262C-262.777 -636.398 -205.749 -615.216 -147.534 -606.504C-94.0472 -598.502 -39.919 -599.687 12.4174 -600.831C25.7093 -601.119 39.4556 -601.422 52.9314 -601.564C128.814 -602.367 217.034 -597.671 296.008 -556.803C379.839 -513.416 443.206 -443.093 500.921 -374.783C510.008 -364.03 518.943 -353.065 528.403 -341.457C554.39 -309.566 581.269 -276.586 611.718 -247.803C646.345 -215.073 680.475 -192.938 716.057 -180.129C719.806 -178.78 723.595 -177.569 727.407 -176.489L727.416 -176.498Z" fill="white" fill-opacity="0.1"></path><path d="M727.367 -154.527C759.999 -145.279 793.928 -146.824 826.869 -148.318L832.293 -148.559C892.107 -151.222 952.653 -155.542 1011.2 -159.723L1018.83 -160.269C1081.88 -164.773 1145.86 -170.222 1207.74 -175.492C1286.31 -182.186 1367.54 -189.102 1447.57 -194.138C1504.03 -197.689 1564.34 -200.024 1622.84 -193.114C1719.15 -181.742 1808.38 -143.83 1880.92 -83.4804C1923.97 -47.6731 1961.39 -5.73034 1997.58 34.828C2030.6 71.8281 2064.73 110.088 2103.21 143.833L2105.5 141.776C2067.21 108.188 2033.14 70.0178 2000.21 33.1033C1963.93 -7.56201 1926.41 -49.6078 1883.14 -85.6095C1846.22 -116.324 1805.06 -141.359 1760.81 -160.015C1717.36 -178.329 1670.96 -190.494 1622.89 -196.169C1564.08 -203.117 1503.57 -200.773 1446.92 -197.212C1366.85 -192.173 1285.59 -185.251 1207.01 -178.558C1145.14 -173.289 1081.17 -167.842 1018.15 -163.339L1010.52 -162.793C951.993 -158.611 891.476 -154.289 831.707 -151.633L826.282 -151.386C789.421 -149.711 751.295 -147.977 715.61 -161.559C636.687 -191.594 577.753 -262.817 525.749 -325.656C516.756 -336.521 508.268 -346.781 499.655 -356.884C473.22 -387.902 441.336 -424.108 405.254 -457.461C367.445 -492.407 330.395 -519.235 291.998 -539.469C210.674 -582.325 122.599 -587.154 47.1649 -586.23C34.9107 -586.078 22.4406 -585.813 10.3785 -585.551C-43.4889 -584.391 -99.1832 -583.194 -154.257 -592.084C-211.588 -601.338 -269.047 -623.893 -325.034 -659.107L-326.815 -656.667C-299.415 -639.431 -271.521 -625.093 -243.912 -614.062C-214.489 -602.298 -184.401 -593.889 -154.475 -589.057C-99.0379 -580.102 -43.1593 -581.309 10.8827 -582.47C22.9366 -582.728 35.3999 -582.995 47.6323 -583.147C122.556 -584.066 209.995 -579.286 290.499 -536.868C377.072 -491.251 442.47 -419.188 496.974 -355.229C505.57 -345.144 514.052 -334.892 523.028 -324.044C549.79 -291.698 577.473 -258.255 608.662 -228.803C644.166 -195.283 678.806 -172.37 714.566 -158.761C718.805 -157.147 723.071 -155.745 727.36 -154.529L727.367 -154.527Z" fill="white" fill-opacity="0.1"></path><path d="M732.137 -131.211C764.042 -122.168 796.888 -123.285 830.447 -125.481C865.861 -127.801 901.645 -131.535 936.255 -135.139C957.35 -137.338 979.153 -139.611 1000.63 -141.539C1026.6 -143.874 1053.02 -146.293 1078.58 -148.635C1194.89 -159.295 1315.16 -170.326 1433.82 -176.577C1492.5 -179.669 1555.37 -181.465 1617.6 -173.741C1674.9 -166.628 1728.23 -151.769 1776.11 -129.577C1810.09 -113.822 1843.64 -91.6164 1878.68 -61.6921C1918.47 -27.7101 1953.44 11.3771 1987.26 49.1775C1990.8 53.1351 1994.34 57.0946 1997.89 61.0502C2029.21 95.9537 2063.6 128.33 2103.02 160.028L2105.18 157.861C2065.93 126.299 2031.69 94.0663 2000.52 59.3205C1996.97 55.3649 1993.43 51.4074 1989.89 47.4478C1955.98 9.54816 1920.92 -29.6344 1880.94 -63.7838C1845.61 -93.9531 1811.74 -116.359 1777.42 -132.273C1729.15 -154.651 1675.4 -169.63 1617.67 -176.795C1555.13 -184.557 1492.05 -182.756 1433.2 -179.652C1314.46 -173.391 1194.15 -162.364 1077.81 -151.702C1052.25 -149.361 1025.83 -146.941 999.865 -144.605C978.36 -142.672 956.542 -140.397 935.431 -138.196C900.858 -134.594 865.112 -130.863 829.764 -128.549C791.719 -126.056 754.628 -124.961 719.127 -138.697C673.269 -156.443 634.737 -189.894 606.294 -217.055C574.37 -247.539 545.2 -281.229 516.992 -313.809C510.732 -321.037 504.261 -328.513 497.869 -335.829C470.938 -366.635 438.443 -402.642 401.621 -436.095C363.39 -470.828 326.024 -497.732 287.392 -518.353C251.027 -537.757 211.701 -550.884 167.157 -558.474C131.226 -564.598 92.7672 -567.183 42.4553 -566.861C28.1579 -566.772 13.5842 -566.467 -0.514326 -566.171C-53.389 -565.07 -108.064 -563.923 -161.828 -573.614C-219.668 -584.036 -276.507 -607.781 -330.758 -644.194L-332.641 -641.816C-277.899 -605.077 -220.529 -581.118 -162.124 -570.593C-107.962 -560.833 -53.0899 -561.98 -0.0172648 -563.087C14.0663 -563.381 28.6249 -563.684 42.8936 -563.776C121.415 -564.28 205.198 -558.813 285.865 -515.762C369.177 -471.3 435.717 -402.19 495.207 -334.134C501.594 -326.826 508.066 -319.356 514.326 -312.128C542.591 -279.482 571.818 -245.726 603.874 -215.117C632.59 -187.697 671.518 -153.916 718.063 -135.906C722.725 -134.104 727.415 -132.543 732.115 -131.211L732.137 -131.211Z" fill="white" fill-opacity="0.1"></path><path d="M741.439 -108.084C773.167 -99.0926 805.778 -100.347 834.463 -102.377C870.049 -104.902 905.622 -109.904 940.021 -114.741C955.913 -116.975 972.352 -119.285 988.568 -121.321C1136 -139.826 1281.39 -152.407 1420.7 -158.718C1478.23 -161.321 1545.92 -162.831 1611.84 -154.277C1671.59 -146.518 1726.04 -131.182 1773.66 -108.692C1806.58 -93.1403 1839.71 -70.6054 1874.94 -39.7912C1906.1 -12.5349 1934.15 18.0088 1961.27 47.5497C1971.5 58.6888 1982.08 70.2087 1992.71 81.4364C2022.6 112.986 2057.13 142.788 2101.37 175.224L2103.39 172.953C2059.34 140.667 2024.99 111.015 1995.27 79.6359C1984.65 68.4314 1974.08 56.9213 1963.87 45.7919C1936.67 16.1752 1908.55 -14.4519 1877.23 -41.8481C1841.71 -72.9128 1808.27 -95.6534 1774.99 -111.374C1726.98 -134.05 1672.12 -149.512 1611.93 -157.324C1545.71 -165.92 1477.8 -164.408 1420.11 -161.797C1280.69 -155.483 1135.2 -142.893 987.68 -124.378C971.434 -122.337 954.986 -120.024 939.08 -117.788C904.741 -112.959 869.236 -107.968 833.776 -105.452C801.037 -103.13 763.135 -101.83 727.706 -115.891C681.302 -134.303 641.552 -167.833 612.112 -194.988C577.783 -226.645 546.296 -261.698 515.833 -295.6C510.231 -301.831 504.642 -308.059 499.026 -314.263C473.065 -342.975 438.405 -380.242 400.47 -413.881C361.685 -448.266 323.881 -475.167 284.894 -496.115C244.268 -517.944 204.558 -531.828 163.492 -538.561C121.797 -545.398 79.388 -546.359 39.7754 -546.378C23.9825 -546.385 7.68417 -546.067 -8.07386 -545.759C-60.899 -544.729 -115.514 -543.665 -167.838 -554.068C-226.352 -565.702 -282.537 -590.85 -334.836 -628.809L-336.843 -626.523C-311.259 -607.953 -284.246 -592.182 -256.565 -579.65C-227.766 -566.614 -198.039 -556.999 -168.21 -551.063C-115.455 -540.575 -60.6208 -541.646 -7.58426 -542.678C8.15876 -542.985 24.4352 -543.302 40.1913 -543.293C79.6429 -543.27 121.857 -542.314 163.266 -535.528C203.876 -528.868 243.155 -515.13 283.369 -493.524C367.798 -448.161 435.664 -379.717 496.419 -312.515C502.028 -306.313 507.618 -300.091 513.214 -293.862C543.729 -259.901 575.286 -224.778 609.746 -192.997C639.443 -165.607 679.572 -131.77 726.614 -113.102C731.523 -111.156 736.47 -109.499 741.44 -108.09L741.439 -108.084Z" fill="white" fill-opacity="0.1"></path><path d="M754.315 -84.0214C784.587 -75.4426 815.049 -76.2352 843.801 -78.5939C882.785 -81.7968 921.763 -88.0016 959.465 -94.0055C968.778 -95.4852 978.409 -97.0184 987.871 -98.481C1133.17 -120.915 1274.95 -135.186 1409.29 -140.893C1468.06 -143.389 1537.47 -144.687 1606.77 -135.388C1668.77 -127.067 1724.02 -111.254 1770.98 -88.3902C1803.35 -72.627 1835.15 -50.2669 1871.04 -18.0386C1893.77 2.38091 1914.4 25.2893 1934.35 47.4424C1950.5 65.3829 1967.2 83.9347 1985 101.148C2015.29 130.446 2051.77 158.815 2099.8 190.417L2101.65 188.016C2053.84 156.553 2017.54 128.335 1987.43 99.2126C1969.73 82.0886 1953.07 63.5874 1936.96 45.6956C1916.95 23.4666 1896.25 0.48222 1873.36 -20.0734C1837.18 -52.5644 1805.09 -75.1227 1772.36 -91.0605C1725 -114.126 1669.33 -130.065 1606.89 -138.441C1537.29 -147.778 1467.66 -146.478 1408.72 -143.973C1274.25 -138.262 1132.32 -123.979 986.892 -101.521C977.415 -100.056 967.784 -98.5232 958.469 -97.0377C920.836 -91.0457 881.925 -84.847 843.083 -81.6602C809.801 -78.9289 774.232 -78.3144 739.62 -92.1797C692.225 -111.174 650.863 -144.934 620.122 -172.221C583.324 -204.888 549.466 -241.247 516.716 -276.41C511.736 -281.759 506.755 -287.102 501.771 -292.434C439.271 -359.254 369.529 -427.527 283.134 -474.217C241.069 -496.951 203.081 -510.717 163.568 -517.533C120.066 -525.042 75.5963 -525.938 37.3368 -526.186C24.284 -526.272 10.9539 -526.231 -1.93955 -526.191C-58.5191 -526.018 -117.019 -525.84 -174.115 -536.082C-230.087 -546.125 -285.752 -572.432 -339.575 -614.261L-341.681 -612.045C-316.073 -592.144 -289.512 -575.454 -262.74 -562.448C-233.428 -548.21 -203.705 -538.318 -174.405 -533.058C-116.955 -522.746 -58.2647 -522.927 -1.51057 -523.1C11.3748 -523.137 24.698 -523.18 37.729 -523.093C75.8357 -522.845 120.11 -521.955 163.311 -514.493C202.362 -507.752 239.954 -494.13 281.6 -471.621C367.485 -425.206 436.941 -357.202 499.207 -290.623C504.191 -285.291 509.166 -279.95 514.147 -274.607C546.956 -239.383 580.877 -202.956 617.812 -170.163C648.801 -142.656 690.524 -108.612 738.511 -89.3813C743.766 -87.2733 749.04 -85.4912 754.309 -83.998L754.315 -84.0214Z" fill="white" fill-opacity="0.1"></path><path d="M769.515 -59.9218C793.917 -53.0086 820.647 -51.2908 853.768 -54.3234C889.178 -57.5636 924.482 -63.8455 958.624 -69.9193C968.772 -71.7243 979.27 -73.5929 989.588 -75.3438C1144.67 -101.716 1274.97 -116.435 1399.62 -121.66C1455.68 -124.012 1529.36 -125.416 1602.12 -115.323C1714.85 -99.6917 1802.56 -59.5085 1862.84 4.10723C1874.5 16.4077 1885.96 29.2141 1897.04 41.5944C1921.08 68.4626 1945.95 96.2397 1974.4 120.652C2015.82 156.187 2062.28 184.738 2098.13 205.648L2099.79 203.132C2064.1 182.315 2017.84 153.89 1976.67 118.564C1948.41 94.3183 1923.64 66.6366 1899.67 39.8599C1888.58 27.4562 1877.09 14.6303 1865.4 2.289C1804.47 -62.0176 1715.94 -102.612 1602.26 -118.377C1529.18 -128.516 1455.27 -127.108 1399.05 -124.748C1274.24 -119.516 1143.8 -104.783 988.55 -78.3809C978.216 -76.6221 967.718 -74.7536 957.563 -72.9505C923.497 -66.8926 888.268 -60.6206 853.014 -57.3926C812.982 -53.7312 782.505 -57.0851 754.22 -68.2662C705.606 -87.4805 662.248 -121.577 629.902 -149.13C590.153 -182.991 553.431 -220.812 517.921 -257.39C513.853 -261.579 509.779 -265.777 505.708 -269.96C441.542 -335.889 369.986 -403.486 281.623 -451.306C237.535 -475.162 200.566 -488.878 161.754 -495.781C119.032 -503.379 75.6066 -504.552 34.7966 -505.098C22.9294 -505.261 10.815 -505.331 -0.907821 -505.396C-60.0252 -505.748 -121.162 -506.11 -180.628 -517.745C-238.133 -529 -293.476 -556.456 -345.113 -599.353L-347.323 -597.223C-322.113 -576.279 -295.896 -558.842 -269.4 -545.406C-240.928 -530.966 -211.182 -520.646 -180.987 -514.735C-121.146 -503.025 -59.821 -502.66 -0.520723 -502.313C11.1871 -502.245 23.3015 -502.175 35.1536 -502.01C75.8026 -501.46 119.041 -500.296 161.463 -492.752C199.821 -485.928 236.407 -472.345 280.075 -448.714C367.962 -401.16 439.247 -333.802 503.192 -268.105C507.262 -263.921 511.331 -259.732 515.399 -255.543C550.974 -218.902 587.754 -181.015 627.648 -147.031C660.235 -119.267 703.947 -84.9078 753.126 -65.4707C758.503 -63.3477 763.951 -61.4979 769.515 -59.9218Z" fill="white" fill-opacity="0.1"></path><path d="M786.785 -36.0409C810.111 -29.4356 835.826 -27.2056 864.885 -29.2303C896.487 -31.4328 927.861 -38.2279 958.2 -44.7984C970.546 -47.4708 982.21 -49.9993 993.837 -52.214C1138 -79.7336 1268.48 -95.7749 1392.74 -101.258C1476.33 -104.953 1539.84 -102.843 1598.64 -94.4315C1665.47 -84.8734 1719.5 -68.6367 1763.83 -44.7964C1793.72 -28.7155 1819.8 -6.59222 1845.91 24.8264C1878.25 63.7386 1914.64 104.575 1961.6 139.584C2006.5 173.053 2055 199.304 2096.52 220.569L2097.98 217.951C2056.61 196.768 2008.3 170.62 1963.65 137.331C1917.02 102.566 1880.81 61.9323 1848.62 23.2047C1822.18 -8.61232 1795.73 -31.0424 1765.36 -47.3754C1720.59 -71.4541 1666.1 -87.8435 1598.78 -97.4726C1539.72 -105.919 1476 -108.036 1392.14 -104.333C1267.71 -98.837 1137.05 -82.7778 992.72 -55.2246C981.053 -52.9961 969.367 -50.4676 956.999 -47.7893C895.516 -34.4769 831.948 -20.7073 771.626 -44.2815C721.19 -63.9963 675.825 -98.2165 641.937 -125.825C599.605 -160.321 560.347 -199.043 522.389 -236.492C518.801 -240.034 515.212 -243.57 511.622 -247.106C445.819 -311.912 372.386 -378.66 281.438 -427.815C235.313 -452.745 197.603 -466.929 159.175 -473.794C117.713 -481.207 76.0206 -482.61 33.4039 -483.483C22.7494 -483.7 11.871 -483.862 1.35412 -484.015C-60.3456 -484.921 -124.147 -485.862 -186.011 -499.015C-246.015 -511.765 -299.605 -539.651 -349.841 -584.257L-352.154 -582.218C-301.377 -537.128 -247.154 -508.932 -186.431 -496.027C-124.177 -482.796 -60.1799 -481.856 1.71361 -480.938C12.2305 -480.785 23.1021 -480.625 33.7416 -480.406C76.1986 -479.535 117.717 -478.137 158.888 -470.782C196.862 -463.996 234.182 -449.947 279.901 -425.238C370.398 -376.329 443.571 -309.804 509.168 -245.207C512.757 -241.67 516.34 -238.136 519.928 -234.594C557.951 -197.083 597.273 -158.294 639.759 -123.679C673.879 -95.8799 719.579 -61.4152 770.562 -41.4894C775.844 -39.4262 781.249 -37.6087 786.792 -36.039L786.785 -36.0409Z" fill="white" fill-opacity="0.1"></path><path d="M804.175 -12.0178C860.154 3.82455 915.11 -9.28471 968.401 -21.9935C978.323 -24.359 988.576 -26.805 998.563 -28.984C1127.26 -57.0959 1257.78 -74.171 1386.49 -79.7344C1444.29 -82.2329 1520.22 -83.6931 1594.85 -72.6938C1662.04 -62.7861 1712.34 -47.0496 1753.14 -23.1578C1782.19 -6.15227 1801.62 19.4599 1820.4 44.2296C1851.79 85.6239 1892.01 122.176 1943.36 155.963C1983.75 182.549 2029.98 207.006 2093.26 235.267L2094.52 232.553C1994.5 187.88 1892.4 133.967 1823.22 42.7358C1804.21 17.671 1784.54 -8.25769 1754.81 -25.6622C1713.53 -49.8329 1662.75 -65.7414 1595.01 -75.7237C1520.05 -86.7729 1443.88 -85.3121 1385.91 -82.8073C1256.98 -77.2279 1126.26 -60.131 997.355 -31.9777C987.337 -29.7889 977.061 -27.3371 967.124 -24.9696C909.357 -11.1929 849.626 3.04896 789.327 -20.1047C736.798 -40.2814 689.433 -74.6101 654.036 -102.271C609.199 -137.304 567.427 -176.767 527.037 -214.936C523.872 -217.924 520.709 -220.917 517.544 -223.904C453.439 -284.411 375.175 -353.122 280.813 -404.013C246.354 -422.593 204.599 -442.765 156.135 -451.488C115.762 -458.755 75.7753 -460.341 31.4244 -461.55C21.9096 -461.808 12.197 -462.03 2.80216 -462.242C-61.4189 -463.701 -127.824 -465.212 -191.999 -479.901C-253.676 -494.019 -307.11 -523.168 -355.372 -569.006L-357.786 -567.062C-334.018 -544.485 -308.368 -525.547 -281.537 -510.763C-253.83 -495.495 -223.864 -484.113 -192.481 -476.924C-127.9 -462.14 -61.2851 -460.625 3.13104 -459.16C12.519 -458.95 22.2303 -458.723 31.7382 -458.466C75.9159 -457.263 115.751 -455.682 155.846 -448.469C203.732 -439.854 245.113 -419.856 279.275 -401.435C373.219 -350.774 451.227 -282.273 515.143 -221.95C518.308 -218.963 521.472 -215.976 524.636 -212.982C565.099 -174.755 606.935 -135.224 651.919 -100.075C687.545 -72.2433 735.235 -37.6857 788.283 -17.3061C793.591 -15.2685 798.886 -13.5148 804.175 -12.0178Z" fill="white" fill-opacity="0.1"></path><path d="M826.218 14.1099C852.613 21.5755 878.679 23.5237 903.935 19.8995C929.229 16.2673 953.98 9.41651 977.916 2.78475C987.13 0.234982 996.664 -2.40543 1006.04 -4.80955C1122.05 -34.5297 1247.05 -52.6137 1377.56 -58.5654C1462.9 -62.455 1527.45 -60.2513 1586.87 -51.4113C1627.45 -45.3768 1686.92 -33.8002 1734.65 -3.09667C1754.24 9.5036 1767.16 28.628 1779.67 47.1221C1783.21 52.3545 1786.87 57.7717 1790.6 62.8826C1821.33 105.145 1865.67 142.236 1926.14 176.286C1979.83 206.517 2039.61 230.478 2091.43 250.572L2092.5 247.772C1977.26 203.1 1859.25 151.913 1793.46 61.4446C1789.77 56.3824 1786.13 50.9905 1782.61 45.7795C1769.9 26.9721 1756.75 7.52296 1736.47 -5.51569C1688.06 -36.6538 1628.01 -48.3571 1587.05 -54.4489C1527.37 -63.327 1462.58 -65.5476 1376.98 -61.6434C1246.23 -55.6812 1120.98 -37.5554 1004.73 -7.77609C995.318 -5.36406 985.776 -2.71971 976.539 -0.164008C952.705 6.43425 928.062 13.2593 902.994 16.8557C872.185 21.2813 841.456 17.4961 809.067 5.29521C708.98 -32.4014 622.751 -111.196 546.674 -180.716C539.777 -187.017 532.647 -193.535 525.713 -199.834C464.276 -255.619 381.069 -326.499 282.106 -379.864C239.638 -402.762 202.709 -419.699 160.523 -427.898C116.184 -436.519 71.0306 -437.979 31.1935 -439.265C22.7457 -439.539 14.1315 -439.784 5.79276 -440.027C-60.8912 -441.953 -129.849 -443.947 -196.243 -460.223C-258.836 -475.568 -313.724 -506.966 -359.365 -553.551L-361.874 -551.695C-315.699 -504.566 -260.166 -472.792 -196.795 -457.259C-129.975 -440.881 -60.8072 -438.883 6.09222 -436.946C14.4241 -436.705 23.0369 -436.454 31.4779 -436.183C71.1704 -434.9 116.151 -433.444 160.171 -424.889C201.834 -416.788 238.435 -400 280.56 -377.28C379.136 -324.125 462.101 -253.45 523.363 -197.821C530.297 -191.521 537.429 -185.01 544.319 -178.71C583.501 -142.909 624.01 -105.89 667.544 -72.8598C716.976 -35.3644 762.931 -8.8775 808.04 8.11325C814.116 10.3999 820.179 12.402 826.224 14.1118L826.218 14.1099Z" fill="white" fill-opacity="0.1"></path><path d="M846.078 38.9862C873.261 46.6673 898.752 48.6452 922.077 44.8611C944.874 41.1578 966.886 33.9712 988.167 27.0191C996.408 24.3278 1004.93 21.5427 1013.33 19.0256C1116.91 -12.0722 1234.91 -31.0445 1364.05 -37.3596C1447.72 -41.4495 1510.97 -39.3618 1569.14 -30.579C1611.49 -24.1908 1665.37 -13.0617 1706.36 16.4934C1721.37 27.3155 1731.09 43.6416 1740.48 59.4289C1744.89 66.8236 1749.43 74.4702 1754.42 81.2949C1791.73 132.425 1854.02 167.463 1910.03 195C1959.71 219.428 2014.57 241.19 2087.9 265.57L2088.77 262.716C2015.63 238.401 1960.93 216.702 1911.42 192.364C1855.86 165.045 1794.09 130.32 1757.27 79.864C1752.38 73.1728 1748.07 65.9351 1743.51 58.2652C1733.92 42.1563 1724.01 25.5007 1708.34 14.2087C1666.63 -15.8668 1612.13 -27.1419 1569.31 -33.6008C1510.86 -42.4178 1447.37 -44.5225 1363.43 -40.4222C1234 -34.0986 1115.71 -15.0772 1011.85 16.1047C1003.42 18.6354 994.875 21.4284 986.612 24.1255C965.449 31.0366 943.569 38.1861 921.037 41.8403C892.924 46.4021 861.518 42.3673 827.694 29.8466C724.36 -8.40976 637.712 -84.1839 553.917 -157.456C546.984 -163.521 540.099 -169.542 533.255 -175.489C440.837 -255.882 363.464 -311.149 282.379 -354.699C243.359 -375.658 204.505 -395.223 158.355 -404.268C114.962 -412.771 69.801 -414.511 29.9521 -416.042C22.4282 -416.329 14.8866 -416.603 7.32862 -416.868C-61.6049 -419.337 -132.881 -421.883 -201.29 -439.716C-265.16 -456.366 -321.543 -490.028 -364.293 -537.059L-366.896 -535.322C-345.135 -511.38 -319.935 -490.81 -292.001 -474.194C-264.369 -457.751 -234.055 -445.166 -201.886 -436.784C-133.045 -418.842 -61.5404 -416.281 7.60985 -413.807C15.1665 -413.535 22.7094 -413.268 30.2251 -412.977C69.9228 -411.451 114.927 -409.724 158.007 -401.279C203.58 -392.347 242.122 -372.933 280.852 -352.13C361.652 -308.729 438.793 -253.62 530.977 -173.436C537.82 -167.483 544.699 -161.47 551.632 -155.405C592.815 -119.39 635.402 -82.1526 680.864 -48.9423C732.444 -11.2695 780.146 15.4233 826.698 32.6588C833.239 35.0789 839.7 37.1964 846.062 38.9939L846.078 38.9862Z" fill="white" fill-opacity="0.1"></path><path d="M865.979 63.8789C894.151 71.8314 918.737 73.7615 940.68 69.7935C961.514 66.0267 981.216 58.3731 1000.27 50.9703C1007.32 48.2306 1014.63 45.3937 1021.82 42.8279C1114.55 9.70426 1221.51 -9.82344 1348.82 -16.8759C1429.84 -21.3647 1490.99 -19.5287 1547.1 -10.9286C1590.53 -4.26691 1639.41 6.36511 1672.55 34.7138C1684.36 44.8161 1692.12 58.9026 1699.63 72.5331C1704.62 81.5886 1709.77 90.9455 1716.06 99.0256C1757.29 151.937 1828.36 185.733 1891.75 213.261C1947.34 237.4 2009.04 258.825 2085.95 280.681L2086.63 277.778C2009.92 255.975 1948.38 234.616 1892.97 210.553C1830.05 183.231 1759.52 149.71 1718.85 97.5158C1712.73 89.656 1707.65 80.4188 1702.72 71.4794C1695.06 57.5764 1687.14 43.1979 1674.81 32.6516C1640.87 3.62705 1591.3 -7.1895 1547.28 -13.9372C1490.88 -22.5872 1429.48 -24.4325 1348.18 -19.9296C1220.52 -12.8573 1113.23 6.73869 1020.18 39.9771C1012.96 42.5622 1005.64 45.4069 998.558 48.1524C979.649 55.497 960.098 63.0942 939.598 66.8005C913.063 71.5965 882.434 67.5019 845.956 54.2761C740.419 16.0079 650.822 -59.2695 564.173 -132.074C556.634 -138.406 548.834 -144.961 541.234 -151.312C449.814 -227.673 367.668 -284.468 282.715 -330.06C241.205 -352.336 203.297 -371.514 159.686 -380.53C115.869 -389.592 71.4251 -391.529 28.4497 -393.405C21.7031 -393.7 14.9455 -393.979 8.1675 -394.263C-62.8946 -397.212 -136.368 -400.26 -206.631 -419.636C-271.838 -437.621 -326.737 -471.838 -369.886 -521.377L-372.547 -519.707C-350.89 -494.843 -325.835 -473.478 -298.092 -456.209C-270.439 -438.997 -239.884 -425.703 -207.288 -416.725C-136.567 -397.226 -62.8566 -394.167 8.43579 -391.209C15.207 -390.926 21.9645 -390.647 28.7112 -390.353C71.5299 -388.49 115.807 -386.556 159.306 -377.56C202.355 -368.659 239.977 -349.623 281.197 -327.504C365.899 -282.051 447.824 -225.399 539.026 -149.222C546.622 -142.88 554.414 -136.327 561.954 -129.994C604.611 -94.1547 648.725 -57.0933 695.521 -24.105C748.56 13.2838 797.455 39.836 844.998 57.0771C852.22 59.698 859.214 61.9633 866.007 63.8808L865.979 63.8789Z" fill="white" fill-opacity="0.1"></path><path d="M884.351 89.0499C907.459 95.5675 933.606 99.9192 958.309 94.9884C977.738 91.1136 995.556 82.7605 1012.8 74.6794C1018.55 71.9804 1024.51 69.1896 1030.38 66.6398C1111.5 31.4133 1209.9 10.2986 1331.21 2.0773C1384.03 -1.49949 1453.25 -4.23676 1520.24 6.45382C1563.09 13.2913 1606.41 23.3771 1633.02 50.6489C1642.51 60.3721 1649.08 72.6124 1655.44 84.4434C1661.12 95.0198 1666.99 105.963 1675.01 115.347C1696.4 140.386 1726.27 162.911 1766.32 184.216C1800.71 202.504 1837.65 217.272 1872.54 230.839C1934.56 254.94 2003.46 275.986 2083.2 295.185L2083.73 292.225C2004.18 273.078 1935.45 252.082 1873.61 228.048C1815.04 205.285 1726.53 170.884 1677.68 113.693C1669.91 104.597 1664.13 93.8234 1658.54 83.4079C1652.07 71.3578 1645.38 58.9042 1635.53 48.8053C1608.09 20.6911 1564 10.3824 1520.44 3.4267C1453.05 -7.3267 1383.55 -4.58849 1330.53 -0.993573C1208.8 7.25233 1110.02 28.4595 1028.55 63.8407C1022.64 66.41 1016.66 69.2087 1010.88 71.9194C993.823 79.9145 976.178 88.1795 957.16 91.9773C924.757 98.4496 889.504 88.3887 862.419 78.902C756.845 41.9353 666.537 -31.8262 579.208 -103.161C569.397 -111.178 559.25 -119.463 549.356 -127.466C460.055 -199.712 373.078 -258.309 283.474 -306.601C244.563 -327.571 204.33 -349.256 158.009 -358.887C114.79 -367.874 70.5348 -369.913 27.7312 -371.885L27.5227 -371.894C21.3507 -372.179 15.1609 -372.451 8.95756 -372.726C-63.9391 -375.958 -139.339 -379.293 -211.133 -400.108C-276.409 -419.023 -332.887 -455.907 -374.457 -506.785L-377.193 -505.193C-356.061 -479.33 -331.224 -457.011 -303.373 -438.85C-275.66 -420.783 -244.87 -406.769 -211.855 -397.202C-139.553 -376.262 -63.9469 -372.907 9.19368 -369.662C15.3903 -369.388 21.5787 -369.111 27.7521 -368.831L27.9674 -368.82C70.6128 -366.856 114.71 -364.824 157.61 -355.902C203.336 -346.395 241.52 -325.817 281.945 -304.028C371.329 -255.854 458.093 -197.398 547.199 -125.313C557.081 -117.32 567.228 -109.034 577.032 -101.02C664.643 -29.462 755.23 44.5337 861.496 81.7391C868.621 84.2339 876.304 86.7679 884.347 89.0364L884.351 89.0499Z" fill="white" fill-opacity="0.1"></path><path d="M900.422 113.646C924.842 120.526 950.75 124.761 974.494 119.783C993.218 115.858 1009.6 106.693 1025.45 97.8249C1029.85 95.3643 1034.4 92.8235 1038.87 90.4655C1109.35 53.3312 1198.63 30.7702 1311.82 21.4843C1357.02 17.7776 1424.65 14.0284 1489.67 24.2489C1524.27 29.6843 1566.92 39.45 1589.77 66.9129C1597.57 76.2821 1603.55 86.9075 1609.34 97.1803C1616.1 109.18 1623.1 121.588 1633.07 132.261C1659.21 160.241 1696.12 180.649 1732.13 198.532C1767.51 216.117 1807.35 232.602 1853.91 248.928C1923.6 273.361 1997.9 293.382 2081.07 310.125L2081.44 307.136C1998.47 290.427 1924.35 270.458 1854.85 246.089C1808.45 229.822 1768.77 213.401 1733.54 195.897C1697.89 178.182 1661.35 157.997 1635.64 130.48C1625.96 120.126 1619.08 107.904 1612.41 96.0812C1606.55 85.6689 1600.49 74.9039 1592.48 65.2887C1568.77 36.7957 1525.19 26.773 1489.87 21.2215C1424.42 10.9383 1356.49 14.7002 1311.09 18.425C1257.81 22.795 1211.29 29.791 1168.85 39.8218C1118.83 51.6383 1075.65 67.3271 1036.83 87.7775C1032.32 90.1551 1027.76 92.7056 1023.35 95.174C1007.71 103.927 991.531 112.971 973.312 116.789C942.239 123.302 906.985 113.45 876.604 102.956C771.398 66.6131 680.449 -5.49802 592.486 -75.2387C580.768 -84.5329 568.651 -94.1385 556.84 -103.378C469.818 -171.474 380.367 -230.102 283.369 -282.608L278.66 -285.159C239.062 -306.617 201.66 -326.883 157.132 -336.377C113.724 -345.63 69.2194 -347.8 26.1866 -349.897L25.576 -349.927C19.7943 -350.207 13.9976 -350.485 8.19138 -350.753C-66.3016 -354.274 -143.324 -357.91 -216.444 -380.06C-282.763 -400.15 -339.316 -438.668 -379.982 -491.44L-382.779 -489.928C-362.13 -463.13 -337.489 -439.913 -309.536 -420.916C-281.747 -402.027 -250.684 -387.313 -217.206 -377.166C-143.613 -354.871 -66.3175 -351.22 8.42082 -347.692C14.2257 -347.418 20.0238 -347.146 25.7973 -346.862L26.4079 -346.833C69.2826 -344.742 113.622 -342.581 156.711 -333.393C200.644 -324.024 237.789 -303.898 277.116 -282.586L281.824 -280.034C378.617 -227.642 467.879 -169.135 554.717 -101.185C566.516 -91.9551 578.626 -82.3515 590.338 -73.0592C678.57 -3.10583 769.799 69.2335 875.678 105.804C883.637 108.556 891.934 111.26 900.407 113.648L900.422 113.646Z" fill="white" fill-opacity="0.1"></path><path d="M914.252 138.46C939.325 145.516 964.574 149.618 987.736 145.116C1007.3 141.317 1023.24 130.781 1038.65 120.599C1041.5 118.718 1044.44 116.771 1047.34 114.917C1109.02 75.4334 1186.53 52.1733 1291.24 41.699C1337.52 37.0709 1398.1 33.0007 1456.17 42.6972C1488.41 48.0773 1524.02 57.1845 1543.77 83.9152C1549.71 91.9481 1554.85 100.264 1559.81 108.307C1568.6 122.54 1577.69 137.257 1591.19 150.133C1622.21 179.694 1664.7 200.295 1702.09 217.273C1741.55 235.193 1785.25 251.733 1835.67 267.824C1911.89 292.157 1993.66 311.655 2078.69 325.781L2078.93 322.776C1994.09 308.688 1912.52 289.237 1836.49 264.958C1786.23 248.911 1742.69 232.432 1703.37 214.58C1666.29 197.737 1624.17 177.328 1593.6 148.197C1580.45 135.655 1571.88 121.784 1562.81 107.101C1557.8 98.996 1552.63 90.6203 1546.61 82.4715C1526.02 54.6131 1489.46 45.2146 1456.41 39.6974C1397.87 29.9267 1336.96 34.0132 1290.44 38.6614C1241.77 43.5303 1199.64 51.0763 1161.66 61.7319C1116.8 74.3087 1078.67 90.878 1045.08 112.373C1042.17 114.24 1039.21 116.191 1036.36 118.076C1021.2 128.095 1005.52 138.451 986.605 142.128C955.993 148.076 921.25 138.434 888.271 127.128C784.895 91.6909 694.657 21.9723 607.399 -45.4521C593.265 -56.3742 578.65 -67.6608 564.413 -78.4569C481.632 -141.227 389.794 -199.83 283.659 -257.626C280.327 -259.443 277.009 -261.256 273.71 -263.058C236.207 -283.586 200.795 -302.974 158.458 -312.467C114.301 -322.367 68.9458 -324.669 25.0832 -326.897L24.2374 -326.943C18.6556 -327.226 13.0507 -327.502 7.44581 -327.779C-68.2676 -331.513 -146.558 -335.371 -220.617 -358.722C-287.907 -379.933 -344.492 -419.98 -384.256 -474.54L-387.112 -473.114C-366.931 -445.424 -342.51 -421.361 -314.532 -401.606C-286.71 -381.957 -255.387 -366.563 -221.424 -355.858C-146.842 -332.353 -68.2955 -328.473 7.66851 -324.724C13.2734 -324.447 18.8715 -324.173 24.4601 -323.888L25.3059 -323.842C69.0037 -321.623 114.181 -319.334 157.999 -309.505C199.742 -300.142 234.919 -280.895 272.15 -260.511C275.455 -258.702 278.766 -256.89 282.105 -255.071C388.06 -197.376 479.72 -138.878 562.342 -76.2336C576.566 -65.4471 591.174 -54.1625 605.297 -43.25C692.826 24.3806 783.334 94.3056 887.368 129.971C896.233 133.011 905.236 135.935 914.249 138.471L914.252 138.46Z" fill="white" fill-opacity="0.1"></path><path d="M922.863 162.182C948.418 169.373 975.149 173.945 998.903 169.633C1020.31 165.747 1036.32 153.274 1051.8 141.206C1052.81 140.417 1053.83 139.623 1054.84 138.834C1107.91 97.6637 1178.24 72.0776 1269.88 60.6201C1312.07 55.3472 1367.36 50.4513 1420.89 59.497C1448.2 64.116 1478.61 72.4785 1497 99.5175C1499.6 103.335 1502.15 107.163 1504.62 110.863C1518.18 131.214 1530.99 150.442 1550.85 167.326C1585.9 197.122 1631.69 217.761 1671.85 234.762C1715.64 253.307 1763.68 270.184 1818.69 286.351C1902.18 310.888 1989.03 329.267 2076.86 340.966L2076.97 337.937C1989.35 326.266 1902.7 307.931 1819.42 283.453C1764.56 267.328 1716.68 250.507 1673.04 232.023C1633.16 215.14 1587.71 194.657 1553.1 165.233C1533.64 148.691 1520.97 129.679 1507.55 109.547C1505.08 105.84 1502.53 102.004 1499.92 98.173C1480.7 69.9191 1449.31 61.242 1421.14 56.4825C1367.11 47.3512 1311.45 52.2737 1269 57.5785C1225.31 63.0429 1187.56 71.376 1153.56 83.0528C1114.44 96.4909 1081.35 113.953 1052.38 136.426C1051.36 137.215 1050.34 138.008 1049.33 138.797C1034.14 150.637 1018.43 162.876 997.814 166.619C966.081 172.381 928.49 161.716 895.902 150.528C795.754 116.138 707.61 49.0429 622.372 -15.8439C605.424 -28.7409 587.905 -42.0781 570.826 -54.7265C470.833 -128.764 364.515 -189.814 283.055 -234.73C278.475 -237.255 273.94 -239.785 269.43 -242.296C232.982 -262.599 198.557 -281.78 157.167 -291.297C112.679 -301.525 66.9191 -303.845 22.6643 -306.083L21.9752 -306.116C16.3225 -306.403 10.6601 -306.679 4.97745 -306.962C-71.5988 -310.726 -150.778 -314.627 -225.489 -339.022C-293.635 -361.277 -350.206 -403.008 -389.098 -459.697L-392.017 -458.345C-352.645 -400.95 -295.354 -358.7 -226.347 -336.158C-151.11 -311.591 -71.6502 -307.679 5.19025 -303.897C10.8662 -303.616 16.5284 -303.339 22.1811 -303.053L22.8704 -303.02C66.9521 -300.787 112.534 -298.479 156.671 -288.332C197.468 -278.951 231.651 -259.912 267.828 -239.754C272.344 -237.235 276.887 -234.709 281.473 -232.177C362.817 -187.324 468.981 -126.36 568.777 -52.4717C585.831 -39.8426 603.345 -26.5131 620.279 -13.62C705.783 51.4656 794.19 118.765 894.983 153.374C903.961 156.459 913.318 159.502 922.842 162.182L922.863 162.182Z" fill="white" fill-opacity="0.1"></path><path d="M927.095 184.317C952.725 191.534 980.906 196.558 1006.18 192.683C1029.78 189.066 1045.62 176.019 1061.09 161.814C1077.77 146.508 1100.63 127.15 1129.73 113.202C1162.4 97.5447 1201.07 86.391 1247.97 79.0865C1283.07 73.6229 1335.39 67.3484 1384.31 75.8985C1416.48 81.5192 1435.61 92.8496 1450.33 114.992C1470.72 145.654 1490.03 167.109 1512.96 184.557C1553.14 215.126 1602.75 235.995 1646.09 253.157C1693.8 272.045 1745.2 288.915 1803.24 304.729C1893.58 329.342 1985.16 346.564 2075.44 355.919L2075.43 352.876C1985.37 343.545 1894.01 326.365 1803.88 301.808C1746 286.038 1694.74 269.215 1647.18 250.386C1604.1 233.328 1554.79 212.595 1515.04 182.343C1492.47 165.171 1473.42 143.994 1453.27 113.69C1437.88 90.5554 1417.98 78.7332 1384.58 72.8954C1335.07 64.2442 1282.33 70.5608 1246.97 76.0678C1199.74 83.4218 1160.76 94.6753 1127.8 110.467C1098.35 124.583 1075.27 144.117 1058.45 159.556C1043.33 173.432 1027.88 186.179 1005.19 189.657C970.699 194.944 930.289 183.125 898.947 172.234C842.901 152.76 791.061 120.601 743.384 88.7394C703.812 62.2935 664.959 33.5679 627.386 5.78615C610.514 -6.69081 593.066 -19.5905 575.801 -32.0972C478.868 -102.328 373.86 -161.137 281.215 -213.015C275.847 -216.022 270.468 -219.075 265.263 -222.037C228.958 -242.666 194.669 -262.145 153.016 -271.745C108.207 -282.065 62.5916 -284.354 18.4764 -286.567C12.5908 -286.859 6.69008 -287.149 0.774443 -287.437C-76.362 -291.178 -156.125 -295.051 -231.171 -320.359C-300.149 -343.623 -356.718 -386.943 -394.758 -445.637L-397.723 -444.368C-359.209 -384.945 -301.92 -341.074 -232.061 -317.513C-156.463 -292.019 -76.4126 -288.133 1.00314 -284.375C6.91197 -284.089 12.814 -283.805 18.6983 -283.507C62.6419 -281.305 108.077 -279.024 152.528 -268.785C193.584 -259.335 227.615 -239.991 263.645 -219.52C268.85 -216.558 274.236 -213.503 279.616 -210.486C372.164 -158.661 477.051 -99.9173 573.798 -29.8252C591.044 -17.33 608.485 -4.43229 625.352 8.03696C662.961 35.8477 701.858 64.6041 741.513 91.0983C789.416 123.11 841.536 155.435 898.025 175.064C907.079 178.21 916.89 181.437 927.097 184.311L927.095 184.317Z" fill="white" fill-opacity="0.1"></path><path d="M926.878 207.547C952.248 214.697 981.776 220.139 1009.35 216.884C1030.71 214.363 1048.22 204.894 1066.13 186.181L1069.13 183.049C1085.37 166.047 1100.71 149.986 1120.9 137.353C1148.91 119.812 1183.43 107.183 1226.44 98.735C1276.1 88.9813 1314.66 87.261 1347.8 93.3221C1374.74 98.2503 1389.33 107.98 1405.67 131.895C1423.64 158.202 1449.01 183.006 1479.02 203.627C1522.87 233.761 1574.51 254.974 1623.78 273.409C1675.04 292.595 1729.36 309.389 1789.83 324.757C1886.84 349.408 1982.63 365.37 2074.54 372.203L2074.41 369.146C1982.74 362.33 1887.19 346.41 1790.42 321.819C1730.1 306.493 1675.92 289.739 1624.8 270.607C1575.78 252.266 1524.43 231.177 1480.94 201.296C1451.32 180.948 1426.3 156.484 1408.59 130.552C1391.78 105.946 1375.95 95.4222 1348.11 90.3242C1314.47 84.1716 1275.45 85.8933 1225.31 95.738C1181.91 104.259 1147.03 117.03 1118.68 134.782C1098.19 147.609 1082.74 163.789 1066.37 180.916L1063.38 184.048C1045.97 202.227 1029.05 211.42 1008.5 213.845C969.513 218.455 926.228 205.187 897.065 194.811C841.426 175.014 790.056 141.551 746.273 111.738C711.639 88.1587 677.362 62.9141 644.218 38.499C623.159 22.9872 601.375 6.94757 579.759 -8.47878C499.08 -66.0474 411.635 -115.597 327.066 -163.509C311.298 -172.443 294.992 -181.684 278.95 -190.844C272.658 -194.439 266.383 -198.104 260.31 -201.644C225.323 -222.064 192.275 -241.346 151.817 -251.106C105.825 -262.195 57.4124 -264.501 14.7032 -266.536C8.36049 -266.837 2.0082 -267.129 -4.3727 -267.422C-81.6755 -270.948 -161.616 -274.595 -236.649 -300.609C-306.284 -324.754 -362.752 -369.704 -399.955 -430.612L-402.968 -429.415C-384.341 -398.916 -360.723 -372.148 -332.785 -349.866C-304.694 -327.459 -272.662 -309.937 -237.573 -297.772C-161.974 -271.567 -81.734 -267.898 -4.14355 -264.36C2.23054 -264.069 8.5828 -263.777 14.9255 -263.476C57.4562 -261.453 105.66 -259.157 151.28 -248.154C191.127 -238.541 223.927 -219.41 258.639 -199.149C264.717 -195.601 271.007 -191.932 277.311 -188.327C293.351 -179.161 309.664 -169.919 325.432 -160.985C409.905 -113.125 497.252 -63.627 577.757 -6.18211C599.355 9.22682 621.119 25.2606 642.165 40.7627C675.342 65.1933 709.65 90.4649 744.347 114.086C788.343 144.041 839.985 177.674 896.086 197.638C905.166 200.869 915.604 204.376 926.863 207.549L926.878 207.547Z" fill="white" fill-opacity="0.1"></path><path d="M924.75 227.874C947.017 234.153 967.386 237.648 985.609 238.295C1022.14 239.595 1050.37 229.509 1069.53 208.308C1074.33 203 1078.92 197.481 1083.37 192.149C1093.86 179.568 1104.7 166.555 1118.45 156.051C1140.94 138.876 1170.18 125.761 1205.37 117.073C1248.04 106.54 1282.82 104.106 1311.73 109.639C1338.2 114.699 1348.46 126.916 1364.3 148.062C1383.24 173.346 1411.97 198.155 1449.65 221.793C1494.11 249.668 1546.14 273.759 1608.75 295.434C1669.46 316.458 1731.18 332.005 1778.17 343.211C1880.23 367.536 1979.5 382.171 2073.22 386.724L2072.99 383.666C1979.52 379.128 1880.5 364.528 1778.69 340.266C1671.41 314.696 1548.63 280.34 1451.43 219.376C1414.15 195.996 1385.8 171.513 1367.13 146.604C1351.18 125.317 1339.98 111.999 1312.07 106.655C1282.6 101.02 1247.27 103.462 1204.08 114.125C1168.46 122.92 1138.83 136.218 1116.01 153.648C1102.02 164.336 1091.07 177.463 1080.49 190.16C1076.06 195.473 1071.48 200.97 1066.72 206.239C1033.93 242.529 974.914 245.037 891.318 213.707C837.62 193.577 787.876 161.087 746.299 131.954C718.037 112.15 689.81 91.3041 662.511 71.1407C636.449 51.8899 609.498 31.9793 582.591 13.0478C511.8 -36.7771 435.287 -80.0435 361.292 -121.887C333.388 -137.668 304.529 -153.984 276.324 -170.456C269.458 -174.468 262.631 -178.555 256.035 -182.51C221.609 -203.146 189.097 -222.63 148.739 -232.579C102.013 -244.096 53.6294 -246.247 10.9379 -248.15C3.8462 -248.464 -3.27821 -248.763 -10.4162 -249.066C-87.3256 -252.291 -166.846 -255.621 -241.273 -282.117C-311.822 -307.234 -368.123 -353.574 -404.087 -416.142L-407.151 -415.035C-389.211 -383.819 -365.933 -356.302 -337.968 -333.237C-309.856 -310.056 -277.646 -291.909 -242.234 -279.303C-167.218 -252.597 -87.3747 -249.251 -10.1711 -246.011C-3.03175 -245.714 4.08444 -245.411 11.1693 -245.098C53.6675 -243.206 101.841 -241.059 148.176 -229.64C187.925 -219.844 220.169 -200.517 254.322 -180.05C260.932 -176.092 267.763 -171.991 274.654 -167.966C302.886 -151.48 331.757 -135.154 359.674 -119.364C433.579 -77.5701 510.001 -34.3538 580.631 15.3573C607.499 34.2656 634.426 54.157 660.476 73.3982C687.794 93.5731 716.038 114.437 744.344 134.271C786.14 163.553 836.16 196.226 890.292 216.516C902.219 220.988 913.717 224.782 924.752 227.894L924.75 227.874Z" fill="white" fill-opacity="0.1"></path><path d="M919.7 249.676C938.161 254.887 959.991 259.496 981.917 260.583C1021.39 262.54 1051.22 252.874 1070.58 231.864C1077.84 223.983 1084.03 215.195 1090.01 206.699C1096.72 197.167 1103.66 187.307 1112.09 178.785C1130.7 159.976 1155.43 145.565 1185.58 135.946C1220.72 124.741 1251.71 121.476 1277.67 126.249C1298.54 130.081 1307.53 141.124 1318.9 155.105C1321.54 158.352 1324.27 161.703 1327.29 165.132C1350.4 191.377 1382.92 216.434 1426.7 241.732C1474.98 269.63 1529.5 293.664 1593.38 315.215C1644.5 332.457 1702.22 348.187 1769.82 363.315C1875.96 387.063 1978.1 400.157 2073.39 402.234L2073.06 399.154C1978.03 397.084 1876.17 384.022 1770.29 360.335C1677.58 339.592 1541.26 304.469 1428.34 239.21C1384.96 214.134 1352.76 189.349 1329.93 163.42C1326.96 160.042 1324.25 156.722 1321.63 153.5C1310.21 139.461 1300.34 127.34 1277.98 123.229C1251.38 118.34 1219.77 121.636 1184.07 133.024C1153.43 142.795 1128.3 157.453 1109.35 176.598C1100.77 185.276 1093.77 195.224 1087 204.844C1081.06 213.279 1074.92 221.993 1067.79 229.745C1019.6 282.059 915.574 246.834 884.839 234.79C832.552 214.306 784.257 181.109 741.646 151.818C712.903 132.061 684.647 110.607 657.322 89.8595C633.146 71.5035 608.144 52.5215 582.929 34.8081C518.675 -10.3279 449.169 -49.6179 381.959 -87.6113C345.658 -108.13 308.127 -129.351 271.787 -151.278C263.237 -156.435 254.678 -162.076 246.403 -167.53C232.334 -176.796 217.788 -186.384 202.57 -194.104C184.691 -203.173 164.371 -210.549 142.187 -216.025C99.3083 -226.613 55.2232 -228.66 12.5915 -230.647L5.13979 -230.997C-5.95472 -231.522 -17.3207 -231.974 -28.3118 -232.413C-101.32 -235.328 -176.808 -238.331 -247.683 -264.012C-317.554 -289.329 -375.108 -338.636 -409.741 -402.846L-412.845 -401.795C-395.468 -369.573 -372.59 -341.118 -344.832 -317.211C-316.665 -292.945 -284.308 -274.095 -248.657 -261.175C-177.185 -235.281 -101.369 -232.254 -28.0498 -229.333C-17.0655 -228.896 -5.70764 -228.44 5.37322 -227.919L12.825 -227.568C55.2631 -225.593 99.1532 -223.551 141.64 -213.061C163.522 -207.658 183.541 -200.392 201.134 -191.465C216.146 -183.854 230.59 -174.332 244.564 -165.124C252.871 -159.648 261.468 -153.985 270.087 -148.783C306.477 -126.823 344.036 -105.594 380.362 -85.0562C447.489 -47.1111 516.897 -7.87343 580.99 37.1483C606.148 54.821 631.114 73.7739 655.266 92.1105C682.628 112.887 710.92 134.37 739.745 154.181C782.544 183.6 831.045 216.937 883.776 237.602C892.529 241.033 905.059 245.549 919.719 249.687L919.7 249.676Z" fill="white" fill-opacity="0.1"></path><path d="M915.8 271.073C937 277.062 956.991 280.347 975.541 280.868C1011.05 281.867 1041.5 272.721 1066.05 253.69C1078.58 243.972 1086.57 231.311 1094.3 219.07C1098.01 213.186 1101.86 207.104 1106.18 201.35C1121.43 181.083 1142.41 165.072 1166.84 155.05C1195.54 143.283 1222.74 139.271 1245.49 143.462C1263.37 146.754 1273.53 158.277 1284.28 170.473C1288.05 174.74 1291.94 179.15 1296.24 183.302C1324.11 210.167 1361.4 236.069 1410.25 262.475C1504.71 313.534 1620.28 353.051 1763.54 383.274C1872.12 406.18 1976.16 417.653 2072.77 417.374L2072.35 414.299C1976.02 414.578 1872.26 403.138 1763.96 380.286C1621.09 350.143 1505.9 310.764 1411.79 259.898C1363.27 233.673 1326.26 207.984 1298.67 181.374C1294.47 177.335 1290.63 172.977 1286.92 168.769C1275.69 156.033 1265.09 144.005 1245.8 140.452C1221.99 136.068 1194.82 140.033 1165.08 152.227C1140.16 162.448 1118.76 178.777 1103.22 199.441C1098.83 205.276 1094.96 211.407 1091.22 217.334C1083.27 229.942 1075.75 241.846 1063.59 251.271C1019.3 285.617 956.976 286.857 878.372 254.958C824.703 233.176 774.935 197.274 734.949 168.423C712.91 152.522 690.732 135.977 669.289 119.983C640.616 98.5925 610.973 76.479 581.299 55.6408C521.284 13.4896 456.191 -23.1765 393.242 -58.6388C351.254 -82.2945 307.835 -106.748 266.266 -132.642C257.934 -137.832 249.61 -143.574 241.555 -149.135C226.668 -159.406 211.269 -170.034 194.783 -177.926C178.109 -185.916 159.074 -191.935 136.589 -196.323C99.8106 -203.509 62.1042 -205.278 25.6423 -206.994C15.9922 -207.451 6.01757 -207.919 -3.74688 -208.476C-34.1635 -210.224 -65.1069 -213.467 -95.0226 -216.601C-107.361 -217.892 -120.109 -219.23 -132.675 -220.449C-180.902 -225.115 -219.357 -233.173 -253.705 -245.806C-323.769 -271.577 -380.955 -322.28 -414.739 -388.583L-417.882 -387.607C-383.671 -320.466 -325.717 -269.11 -254.704 -242.984C-220.016 -230.223 -181.237 -222.092 -132.647 -217.392C-120.101 -216.18 -107.353 -214.841 -95.0284 -213.554C-65.0637 -210.413 -34.0767 -207.17 -3.56737 -205.415C6.2175 -204.851 16.1989 -204.382 25.8573 -203.928C62.1828 -202.22 99.7379 -200.456 136.225 -193.328C158.354 -189.003 177.059 -183.095 193.415 -175.265C209.607 -167.511 224.868 -156.979 239.623 -146.795C247.716 -141.211 256.084 -135.437 264.499 -130.198C306.145 -104.264 349.608 -79.7798 391.635 -56.1067C454.495 -20.6947 519.498 15.9211 579.35 57.958C608.975 78.7633 638.598 100.865 667.247 122.236C688.702 138.24 710.892 154.795 732.956 170.715C782.283 206.3 827.192 237.414 877.247 257.726C890.484 263.098 903.356 267.551 915.801 271.067L915.8 271.073Z" fill="white" fill-opacity="0.1"></path><path d="M912.609 292.693C962.076 306.677 1018.36 309.823 1060.22 275.495C1076 262.552 1087.01 245.868 1097.66 229.728C1112.04 207.94 1125.62 187.354 1150 174.904C1174.68 162.306 1197.09 157.87 1216.61 161.729C1233.12 164.994 1245.51 177.211 1257.49 189.027C1262.39 193.858 1267.46 198.856 1272.69 203.101C1307.48 231.308 1350.34 258.277 1403.73 285.552C1456.95 312.74 1515.64 336.803 1578.17 357.07C1634.5 375.323 1695.92 391.131 1760.72 404.044C1870.16 425.859 1975.16 435.619 2072.79 433.053L2072.27 429.987C1974.93 432.542 1870.23 422.808 1761.08 401.053C1623.48 373.629 1507.06 334.992 1405.18 282.943C1352.06 255.799 1309.43 228.984 1274.87 200.958C1269.78 196.838 1265.01 192.128 1259.96 187.14C1247.55 174.898 1234.72 162.241 1216.97 158.738C1196.58 154.708 1173.38 159.237 1148 172.201C1122.96 184.992 1108.54 206.833 1094.6 227.957C1084.07 243.93 1073.16 260.445 1057.69 273.135C1004.6 316.673 927.284 298.289 871.776 275.199C821.001 254.082 774.733 220.808 727.865 185.694C677.377 147.867 626.628 110.935 577.014 75.9396C518.07 34.3556 453.889 -2.03117 391.825 -37.2231C347.775 -62.1982 302.231 -88.0242 258.875 -115.517C252.766 -119.394 246.585 -123.551 240.605 -127.577C223.91 -138.819 206.65 -150.444 187.755 -158.09C169.935 -165.301 150.295 -170.369 125.941 -174.036C93.6687 -178.897 60.7794 -180.399 28.9837 -181.852C14.9594 -182.493 0.460567 -183.157 -13.7406 -184.097C-56.3345 -186.925 -98.6894 -191.972 -139.65 -199.11L-143.847 -199.843C-182.905 -206.635 -223.296 -213.661 -260.796 -227.592C-330.903 -253.634 -387.677 -305.543 -420.667 -373.768L-423.839 -372.864C-390.434 -303.776 -332.889 -251.189 -261.806 -224.784C-223.952 -210.722 -183.366 -203.66 -144.118 -196.839L-139.922 -196.106C-98.8273 -188.949 -56.3184 -183.877 -13.5881 -181.041C0.648537 -180.097 15.1692 -179.434 29.2153 -178.793C60.9169 -177.341 93.6917 -175.847 125.759 -171.012C149.783 -167.395 169.124 -162.412 186.631 -155.326C205.122 -147.845 222.2 -136.345 238.72 -125.221C244.719 -121.184 250.923 -117.001 257.084 -113.098C300.528 -85.5487 346.117 -59.6976 390.212 -34.6973C452.193 0.446237 516.277 36.7808 575.059 78.2506C624.64 113.231 675.368 150.132 725.817 187.941C772.899 223.222 819.407 256.65 870.624 277.961C883.627 283.37 897.823 288.526 912.613 292.707L912.609 292.693Z" fill="white" fill-opacity="0.1"></path><path d="M909.013 315.72C955.877 328.981 1014.6 334.299 1056.83 299.442C1073.54 285.647 1084.16 266.903 1094.42 248.776C1106.12 228.103 1117.18 208.574 1136.53 195.531C1156.52 182.059 1175.49 177.114 1192.93 180.838C1209.87 184.461 1225.11 197.233 1239.83 209.585C1246.39 215.09 1252.59 220.291 1258.84 224.609C1304.84 256.411 1355.1 286.255 1408.21 313.31C1509.65 364.978 1624.7 401.808 1759.92 425.89C1875.38 446.451 1977.99 454.044 2073.62 449.092L2073 446.019C1977.68 450.957 1875.36 443.384 1760.2 422.878C1625.4 398.87 1510.74 362.173 1409.66 310.691C1356.72 283.727 1306.62 253.978 1260.77 222.275C1254.68 218.064 1248.55 212.918 1242.06 207.478C1226.95 194.803 1211.32 181.692 1193.35 177.854C1174.88 173.906 1154.99 179.002 1134.22 193.002C1114.34 206.404 1102.61 227.116 1091.27 247.145C1081.13 265.068 1070.63 283.595 1054.3 297.081C998.365 343.26 912.2 316.977 865.824 297.196C813.698 274.972 767.771 240.809 721.414 204.797C711.832 197.354 702.115 189.741 692.718 182.375C653.5 151.644 612.946 119.862 570.826 91.6089C503.709 46.5874 431.728 5.52023 362.114 -34.2039C325.822 -54.9099 288.3 -76.3195 251.945 -98.0224C246.629 -101.198 241.249 -104.565 236.053 -107.819C218.654 -118.715 200.665 -129.984 180.748 -136.673C162.758 -142.717 142.739 -146.873 117.753 -149.759C89.8644 -152.98 61.5232 -154.154 34.1175 -155.287C15.447 -156.062 -3.85773 -156.86 -22.7724 -158.297C-112.657 -165.137 -194.79 -182.292 -266.892 -209.29C-336.776 -235.455 -392.925 -288.733 -425.002 -359.304L-428.21 -358.46C-412.534 -323.972 -391.088 -293.419 -364.473 -267.651C-336.514 -240.581 -304.031 -220.004 -267.917 -206.481C-195.447 -179.348 -112.928 -162.103 -22.6642 -155.236C-3.67861 -153.792 15.6616 -152.99 34.3622 -152.219C61.6954 -151.087 89.9576 -149.918 117.705 -146.718C142.402 -143.869 162.152 -139.771 179.858 -133.82C199.304 -127.289 217.084 -116.154 234.274 -105.386C239.489 -102.121 244.881 -98.7432 250.242 -95.5428C286.63 -73.8244 324.178 -52.4013 360.481 -31.6855C430.025 7.9998 501.942 49.0302 568.94 93.9683C610.941 122.138 651.435 153.872 690.589 184.56C699.986 191.926 709.71 199.54 719.298 206.992C765.877 243.172 812.04 277.507 864.628 299.932C877.043 305.228 892.273 310.977 909.015 315.715L909.013 315.72Z" fill="white" fill-opacity="0.1"></path><path d="M904.686 336.98C921.58 341.764 940.078 345.571 958.852 346.909C997.643 349.671 1029.61 341.454 1053.84 322.483C1073.23 307.301 1085.1 286.237 1095.04 265.741C1096.74 262.228 1098.41 258.548 1100.02 254.99C1106.51 240.686 1113.22 225.897 1124.82 215.63C1140.33 201.898 1156.2 196.768 1173.34 199.945C1183.53 201.835 1193.45 208.3 1203.05 214.548C1203.89 215.096 1204.72 215.637 1205.55 216.17C1220.32 225.723 1237.05 236.55 1253.7 247.133C1313.28 285.012 1363.91 315.783 1417.32 342.847C1517.74 393.722 1629.81 427.948 1759.94 447.479C1881.68 465.756 1981.18 471.003 2073.05 463.991L2072.34 460.927C1980.76 467.917 1881.54 462.678 1760.11 444.451C1630.43 424.985 1518.78 390.891 1418.76 340.223C1365.5 313.239 1314.97 282.53 1255.49 244.714C1238.86 234.141 1222.13 223.316 1207.36 213.77C1206.54 213.239 1205.71 212.699 1204.88 212.158C1195.4 205.988 1184.66 198.994 1173.64 196.95C1155.34 193.554 1138.51 198.911 1122.21 213.341C1110.19 223.981 1103.36 239.022 1096.77 253.576C1095.16 257.118 1093.5 260.786 1091.81 264.272C1082 284.49 1070.31 305.251 1051.35 320.093C993.731 365.214 906.057 337.798 858.925 317.443C805.769 294.485 758.135 258.102 713.908 222.809C703.199 214.261 692.351 205.5 681.871 197.03C643.783 166.263 604.406 134.453 563.302 106.244C484.306 52.0231 397.832 4.8721 314.21 -40.7179C291.03 -53.3569 267.058 -66.4258 243.658 -79.4259C239.165 -81.9245 234.638 -84.526 230.266 -87.0403C212.383 -97.3205 193.898 -107.945 173.296 -113.779C172.983 -113.868 172.669 -113.957 172.349 -114.047C154.045 -119.081 134.288 -122.323 108.289 -124.556C85.0328 -126.553 61.4231 -127.419 38.5838 -128.253C15.1473 -129.113 -9.09642 -130.002 -32.8567 -132.112C-115.335 -139.445 -198.708 -160.09 -273.966 -191.802C-346.035 -222.176 -399.995 -275.165 -430.012 -345.046L-433.248 -344.269C-418.149 -309.126 -397.177 -278.151 -370.915 -252.203C-344.234 -225.843 -312.01 -204.598 -275.15 -189.057C-199.497 -157.17 -115.698 -136.423 -32.7992 -129.052C-8.93252 -126.931 15.3549 -126.041 38.8486 -125.178C61.6361 -124.34 85.1953 -123.476 108.36 -121.492C134.103 -119.281 153.631 -116.086 171.681 -111.118C192.14 -105.48 209.858 -95.3027 228.611 -84.5209C233.003 -81.9949 237.537 -79.3914 242.063 -76.8774C265.476 -63.8735 289.454 -50.7968 312.64 -38.156C396.171 7.38956 482.549 54.4883 561.37 108.585C602.335 136.705 641.658 168.463 679.686 199.181C690.179 207.655 701.027 216.416 711.748 224.974C756.196 260.442 804.076 297.012 857.708 320.173C870.469 325.685 886.664 331.896 904.675 336.996L904.686 336.98Z" fill="white" fill-opacity="0.1"></path><path d="M900.05 359.693C916.826 364.448 935.206 368.287 954.06 369.865C994.08 373.212 1027.16 365.658 1052.4 347.415C1076.13 330.263 1086.44 305.536 1096.41 281.619C1102.73 266.467 1109.26 250.792 1119.14 237.405C1130.23 222.389 1143.39 216.954 1160.59 220.314C1185.49 225.177 1210.86 242.473 1235.39 259.199C1243.19 264.513 1250.55 269.541 1257.76 274.056C1318.87 312.357 1374.17 346.447 1432.09 375.708C1482.26 401.061 1535.13 421.61 1591.49 437.583C1645.24 452.821 1702.18 463.896 1763.03 471.026C1890.29 485.93 1986.22 488.519 2074.06 479.417L2073.26 476.35C1985.7 485.425 1890.04 482.837 1763.08 467.968C1638.92 453.424 1531.13 422.382 1433.53 373.069C1375.77 343.884 1320.56 309.851 1259.54 271.606C1252.39 267.128 1245.06 262.127 1237.3 256.837C1213.58 240.665 1186.69 222.332 1160.94 217.304C1142.25 213.653 1128.02 219.443 1116.16 235.509C1106.1 249.145 1099.51 264.965 1093.13 280.258C1083.3 303.838 1073.13 328.224 1050.03 344.927C987.154 390.376 890.648 356.064 852.075 339.205C797.871 315.513 750.333 278.325 706.284 242.262C694.647 232.732 682.881 222.946 671.498 213.481C634.289 182.537 595.816 150.539 555.481 122.25C463.809 57.9541 361.23 5.36439 262.03 -45.4851C252.929 -50.1484 243.83 -54.8175 234.75 -59.4809C231.149 -61.3338 227.53 -63.2355 224.02 -65.075C204.34 -75.415 185.746 -85.178 164.027 -90.0702C140.927 -95.2727 117.564 -97.1958 99.7895 -98.2919C80.6096 -99.4736 61.1318 -100.039 42.2969 -100.585C14.0916 -101.403 -15.0732 -102.255 -43.6688 -105.186C-124.959 -113.523 -207.455 -137.013 -282.24 -173.127C-323.019 -192.82 -351.293 -211.959 -373.914 -235.183C-399.84 -261.804 -420.632 -294.289 -435.721 -331.753L-438.982 -331.032C-423.734 -293.16 -402.691 -260.29 -376.431 -233.331C-353.469 -209.76 -324.847 -190.366 -283.617 -170.458C-208.394 -134.138 -125.421 -110.507 -43.6617 -102.124C-14.9172 -99.176 14.3212 -98.328 42.5975 -97.5025C61.4023 -96.9527 80.8446 -96.3911 99.9605 -95.215C117.585 -94.1301 140.74 -92.2221 163.558 -87.0871C184.758 -82.3106 203.099 -72.6758 222.527 -62.4698C226.036 -60.6244 229.668 -58.7189 233.29 -56.8601C242.368 -52.1909 251.469 -47.5276 260.57 -42.8644C359.645 7.92491 462.089 60.4447 553.53 124.575C593.728 152.769 632.134 184.71 669.283 215.6C680.666 225.065 692.444 234.861 704.093 244.401C748.362 280.644 796.158 318.031 850.851 341.937C864.075 347.719 881.035 354.284 900.061 359.677L900.05 359.693Z" fill="white" fill-opacity="0.1"></path><path d="M895.025 382.326C911.841 387.097 930.307 391.006 949.41 392.793C990.312 396.63 1024.66 389.919 1051.49 372.846C1079.04 355.321 1089.89 328.446 1100.4 302.455C1105.86 288.93 1111.52 274.95 1119.45 262.478C1129.59 246.545 1142.25 241.209 1160.5 245.178C1188.03 251.162 1215.83 269.952 1242.71 288.118C1251.66 294.165 1260.11 299.88 1268.41 305.027L1278.14 311.055C1333.72 345.513 1391.19 381.145 1450.22 410.859C1506.83 439.353 1562.96 460.416 1617.07 473.464C1660.15 483.855 1707.79 490.871 1766.99 495.552C1860.72 502.959 1970.52 508.688 2074.17 495.038L2073.26 491.972C1969.96 505.575 1860.41 499.854 1766.89 492.468C1707.9 487.809 1660.47 480.82 1617.59 470.483C1563.8 457.51 1507.96 436.557 1451.64 408.208C1392.78 378.579 1335.39 342.994 1279.89 308.583L1270.16 302.555C1261.93 297.452 1253.5 291.763 1244.59 285.734C1217.38 267.343 1189.25 248.32 1160.93 242.17C1141.02 237.845 1127.28 243.564 1116.37 260.718C1108.3 273.387 1102.61 287.48 1097.1 301.111C1086.75 326.72 1076.05 353.201 1049.25 370.252C981.539 413.338 883.892 378.164 845.047 361.033C789.956 336.74 740.495 297.288 698.458 262.206C686.048 251.847 673.518 241.191 661.401 230.884C624.892 199.83 587.141 167.715 547.409 139.41C450.42 70.3198 339.866 16.3207 225.655 -37.4676C223.297 -38.5757 220.955 -39.6917 218.619 -40.8C197.681 -50.7488 177.901 -60.1434 154.783 -64.2552C132.051 -68.3018 109.086 -69.6288 89.6177 -70.3904C75.0152 -70.9635 60.1758 -71.2713 45.8223 -71.5731C12.9659 -72.2559 -21.0042 -72.9661 -54.3106 -76.9007C-133.268 -86.221 -214.824 -112.614 -290.164 -153.217C-329.52 -174.426 -357.842 -194.795 -379.299 -217.319C-405.331 -244.641 -426.036 -278.351 -440.828 -317.497L-444.113 -316.829C-429.159 -277.254 -408.204 -243.16 -381.84 -215.486C-360.084 -192.652 -331.441 -172.041 -291.698 -150.622C-215.9 -109.77 -133.83 -83.2123 -54.3623 -73.8352C-20.8648 -69.8776 13.2009 -69.1717 46.15 -68.4814C60.4831 -68.1854 75.3075 -67.8756 89.8731 -67.3003C109.203 -66.5403 132.003 -65.2225 154.493 -61.226C177.066 -57.2121 196.597 -47.9322 217.273 -38.1078C219.609 -36.9996 221.951 -35.8836 224.323 -34.7716C338.358 18.9292 448.73 72.8389 545.438 141.73C585.026 169.931 622.711 201.99 659.153 232.988C671.276 243.303 683.811 253.967 696.241 264.337C738.491 299.592 788.222 339.259 843.808 363.768C857.437 369.78 875.068 376.652 895.014 382.31L895.025 382.326Z" fill="white" fill-opacity="0.1"></path><path d="M890.566 403.605C907.505 408.413 926.167 412.418 945.673 414.469C987.548 418.866 1023.24 413.203 1051.76 397.633C1072.36 386.383 1088.73 368.787 1100.38 345.332C1104.29 337.492 1107.4 329.054 1110.41 320.887C1114.36 310.175 1118.44 299.097 1124.27 289.604C1134.31 273.249 1146.98 268.318 1166.65 273.127C1196.95 280.537 1227.33 300.761 1256.69 320.316C1266.6 326.917 1275.96 333.155 1285.24 338.85C1291.89 342.929 1298.54 347.023 1305.19 351.124C1358.94 384.218 1414.52 418.439 1471.55 446.932C1528.36 475.318 1581.3 494.376 1633.39 505.195C1673.21 513.464 1716.08 518.067 1772.39 520.113C1871.87 523.727 1977.12 525.966 2074.22 510.523L2073.22 507.483C1976.45 522.877 1871.41 520.642 1772.11 517.031C1716.04 514.994 1673.38 510.418 1633.79 502.197C1582.06 491.456 1529.46 472.511 1472.97 444.286C1416.11 415.873 1360.61 381.706 1306.94 348.659C1300.29 344.558 1293.64 340.465 1286.99 336.385C1277.78 330.729 1268.45 324.517 1258.56 317.932C1228.9 298.178 1198.23 277.749 1167.2 270.16C1146.07 264.991 1131.87 270.464 1121.18 287.89C1115.22 297.6 1111.1 308.794 1107.1 319.623C1104.11 327.721 1101.02 336.103 1097.19 343.817C1085.77 366.779 1069.79 383.985 1049.7 394.955C974.501 436.01 869.162 395.117 838.667 381.599C765.879 349.347 704.163 295.265 644.478 242.967C610.775 213.431 575.919 182.888 539.705 156.919C438.96 84.6675 324.992 32.0718 216.837 -14.0071L214.821 -14.8667C192.146 -24.5339 170.732 -33.6616 145.832 -37.0816C123.643 -40.1256 101.013 -40.9833 79.8622 -41.4522C69.6564 -41.6818 59.284 -41.8211 49.2443 -41.9534C11.9655 -42.4525 -26.5737 -42.972 -64.3296 -48.0924C-141.384 -58.5459 -221.964 -87.8065 -297.371 -132.704C-336.587 -156.051 -364.811 -177.902 -386.199 -201.461C-411.391 -229.217 -431.259 -263.14 -445.24 -302.277L-448.544 -301.678C-434.414 -262.124 -414.31 -227.815 -388.799 -199.712C-367.147 -175.853 -338.629 -153.769 -299.056 -130.209C-223.171 -85.0251 -142.045 -55.5785 -64.4426 -45.0443C-26.4481 -39.8875 12.2221 -39.3683 49.6169 -38.8675C59.6483 -38.7313 70.0139 -38.5939 80.1993 -38.3702C101.234 -37.9029 123.728 -37.0527 145.713 -34.0355C170.056 -30.6922 191.225 -21.6712 213.636 -12.1166L215.652 -11.257C323.589 34.7287 437.309 87.204 537.731 159.221C573.784 185.074 608.56 215.552 642.198 245.025C702.112 297.526 764.062 351.817 837.437 384.324C851.425 390.519 869.689 397.672 890.581 403.603L890.566 403.605Z" fill="white" fill-opacity="0.1"></path><path d="M885.216 426.147C904.258 431.557 923.222 435.373 941.557 437.444C984.081 442.247 1021.19 437.595 1051.88 423.625C1075.22 412.993 1093.75 395.87 1106.95 372.729C1111.5 364.752 1115.1 356.059 1118.59 347.654C1122.66 337.831 1126.87 327.676 1132.53 318.948C1143.08 302.661 1156.66 298.154 1177.9 303.897C1211.07 312.837 1244.12 334.644 1276.07 355.704C1286.73 362.735 1296.8 369.374 1306.83 375.524C1315.55 380.872 1324.29 386.253 1333.02 391.634C1385.34 423.884 1439.45 457.229 1495 484.838C1549.91 512.121 1600.34 529.506 1649.18 537.985C1694.9 545.919 1740.55 546.478 1779.17 545.983C1829.81 545.33 1880.19 542.945 1927.09 540.46L1933.47 540.124C1980.45 537.65 2029.03 535.092 2075.1 526.294L2073.99 523.267C2028.17 532.015 1979.71 534.565 1932.85 537.037L1926.47 537.371C1879.61 539.854 1829.27 542.241 1778.7 542.888C1740.26 543.385 1694.85 542.828 1649.45 534.948C1601.01 526.54 1550.95 509.28 1496.42 482.178C1441.05 454.656 1387.02 421.358 1334.77 389.163C1326.03 383.78 1317.31 378.401 1308.57 373.051C1298.6 366.936 1288.56 360.318 1277.93 353.306C1245.7 332.06 1212.38 310.103 1178.55 300.947C1155.85 294.819 1140.72 299.827 1129.47 317.176C1123.68 326.1 1119.43 336.367 1115.31 346.296C1111.85 354.628 1108.28 363.243 1103.81 371.085C1090.89 393.724 1072.79 410.468 1050.01 420.84C994.416 446.161 912.778 439.666 831.633 403.45C758.344 370.744 696.577 315.999 636.845 263.06C602.853 232.937 567.707 201.785 531.058 175.324C485.067 142.118 433.917 111.731 374.678 82.4223C326.044 58.3565 271.134 34.7124 206.817 10.143C181.942 0.638852 160.962 -6.83164 136.397 -9.3573C113.255 -11.742 90.418 -12.0855 67.1168 -12.2477C61.6037 -12.2856 56.0798 -12.3079 50.5572 -12.3361C9.10178 -12.5198 -33.7718 -12.7055 -75.7014 -19.1377C-151.435 -30.7583 -231.127 -62.9091 -306.168 -112.124C-342.536 -135.974 -370.799 -159.483 -392.588 -184.008C-417.766 -212.347 -437.449 -247.412 -451.104 -288.224L-454.434 -287.679C-440.639 -246.439 -420.713 -210.979 -395.221 -182.276C-373.209 -157.493 -344.679 -133.758 -308.016 -109.711C-232.475 -60.1728 -152.21 -27.8025 -75.9002 -16.0935C-33.6826 -9.61714 9.3356 -9.42784 50.937 -9.24647C56.4528 -9.22026 61.97 -9.19991 67.4831 -9.16193C90.6832 -9.00338 113.417 -8.65778 136.39 -6.29018C160.456 -3.81209 181.173 3.57115 205.755 12.9607C345.598 66.3864 445.305 117.172 529.047 177.628C565.535 203.968 600.604 235.048 634.522 265.112C694.483 318.254 756.491 373.212 830.367 406.178C848.396 414.226 866.843 420.927 885.209 426.145L885.216 426.147Z" fill="white" fill-opacity="0.1"></path><path d="M880.625 447.356C899.873 452.829 919.193 456.784 938.056 459.063C981.122 464.272 1019.62 460.722 1052.49 448.501C1077.56 439.175 1097.87 424.003 1112.85 403.397C1119.07 394.834 1123.91 385.251 1128.58 375.979C1133.2 366.823 1137.97 357.361 1143.98 349.205C1155.54 333.511 1170.87 329.551 1193.68 336.344C1229.94 347.145 1265.55 370.349 1300 392.782C1311.14 400.041 1321.66 406.89 1332.22 413.357C1342.41 419.595 1352.77 425.994 1362.8 432.177C1413.46 463.45 1465.85 495.787 1519.69 522.327C1571.71 547.975 1618.9 563.481 1663.95 569.74C1705.48 575.506 1747.46 573.857 1786.63 571.216C1794.41 570.69 1802.22 570.17 1810.04 569.648C1898.2 563.783 1989.37 557.713 2075.3 541.324L2074.19 538.301C1988.48 554.651 1897.43 560.71 1809.37 566.569C1801.55 567.091 1793.74 567.611 1785.95 568.135C1746.98 570.765 1705.25 572.409 1664.07 566.693C1619.48 560.499 1572.7 545.118 1521.08 519.671C1467.43 493.221 1415.12 460.932 1364.54 429.714C1354.51 423.523 1344.15 417.124 1333.95 410.885C1323.44 404.451 1312.94 397.613 1301.82 390.368C1267.13 367.77 1231.25 344.398 1194.42 333.427C1170.24 326.228 1153.27 330.634 1140.99 347.305C1134.86 355.631 1130.04 365.198 1125.37 374.441C1120.74 383.619 1115.95 393.114 1109.85 401.506C1095.19 421.667 1075.33 436.509 1050.82 445.625C990.036 468.232 905.669 460.118 825.142 423.92C751.511 390.821 689.699 335.816 629.922 282.615C595.547 252.022 559.99 220.385 522.796 193.525C476.357 159.989 425.166 130.112 366.306 102.188C315.675 78.1676 260.37 56.108 197.231 34.7541C171.374 26.0079 150.552 20.2379 126.686 18.5057C103.179 16.7943 79.5422 16.8722 56.6836 16.9525L53.8296 16.9604C7.88054 17.1175 -39.6272 17.2818 -86.2953 9.41056C-160.537 -3.1171 -239.325 -38.0511 -314.144 -91.6137C-387.649 -144.234 -434.088 -203.881 -456.123 -273.969L-459.468 -273.482C-448.002 -237.018 -429.479 -202.626 -404.413 -171.246C-381.219 -142.212 -351.517 -114.648 -316.12 -89.3048C-240.789 -35.378 -161.399 -0.191312 -86.5336 12.4386C-39.5231 20.3697 8.15944 20.2051 54.2681 20.0495L57.1222 20.0417C79.907 19.9654 103.471 19.8856 126.821 21.5838C150.258 23.2876 170.799 28.984 196.353 37.6253C329.71 82.7211 435.842 134.473 520.808 195.824C557.842 222.564 593.312 254.132 627.615 284.661C687.621 338.065 749.668 393.281 823.884 426.64C842.371 434.948 861.46 441.901 880.626 447.351L880.625 447.356Z" fill="white" fill-opacity="0.1"></path><path d="M876.202 470.109C938.772 487.915 1001.88 489.855 1052.98 474.533C1080.89 466.171 1104.74 451.439 1121.96 431.931C1128.97 423.99 1134.71 414.945 1140.26 406.198C1145.7 397.617 1151.33 388.749 1158.02 381.225C1171.39 366.206 1188.45 363.042 1213.32 370.975C1252.39 383.431 1290.58 408.175 1327.5 432.101C1338.89 439.484 1349.66 446.456 1360.5 453.124C1371.6 459.953 1382.88 466.967 1393.8 473.756C1442.61 504.112 1493.09 535.508 1545.05 560.953C1595.2 585.512 1640.18 599.261 1682.57 602.991C1721.48 606.416 1759.53 602.187 1795.18 597.569C1816.07 594.859 1837.45 592.24 1858.14 589.712C1930.45 580.866 2005.23 571.715 2076.34 556.576L2075.17 553.557C2004.21 568.665 1929.51 577.806 1857.27 586.643C1836.58 589.178 1815.19 591.794 1794.29 594.5C1758.85 599.096 1721.03 603.297 1682.5 599.906C1640.63 596.222 1596.12 582.601 1546.44 558.276C1494.67 532.923 1444.29 501.585 1395.56 471.284C1384.64 464.495 1373.35 457.473 1362.24 450.641C1351.44 443.996 1340.7 437.037 1329.32 429.672C1292.16 405.598 1253.74 380.699 1214.14 368.072C1187.69 359.622 1169.51 363.046 1155.2 379.134C1148.36 386.81 1142.68 395.775 1137.17 404.441C1131.68 413.103 1126 422.056 1119.12 429.847C1102.26 448.954 1078.88 463.388 1051.54 471.587C985.09 491.505 897.998 481.836 818.57 445.727C744.723 412.149 682.871 356.852 623.062 303.375C588.182 272.188 552.123 239.949 514.248 212.586C426.146 148.939 319.164 99.0125 187.185 59.965C166.531 53.8551 143.753 48.0202 117.263 46.7664C95.6264 45.7439 73.7652 46.0211 52.6185 46.2942L47.4179 46.3603C-4.30098 47.0084 -50.9032 46.8313 -97.4702 38.1296C-171.084 24.3707 -249.041 -13.3496 -322.922 -70.9446C-395.651 -127.646 -441.087 -189.709 -461.834 -260.678L-465.199 -260.241C-454.401 -223.294 -436.39 -187.908 -411.661 -155.053C-388.953 -124.879 -359.805 -95.8323 -325.033 -68.7171C-289.946 -41.3615 -253.842 -18.3358 -217.737 -0.280687C-177.42 19.8776 -137.065 33.8191 -97.789 41.1623C-50.8601 49.9356 -4.0543 50.1141 47.8832 49.4653L53.0838 49.3992C74.1716 49.1282 95.9756 48.8473 117.489 49.8663C143.554 51.0998 166.038 56.857 186.452 62.8989C317.969 101.808 424.54 151.53 512.255 214.903C549.955 242.141 585.942 274.316 620.743 305.436C680.781 359.117 742.867 414.625 817.292 448.468C836.611 457.252 856.381 464.487 876.204 470.129L876.202 470.109Z" fill="white" fill-opacity="0.1"></path><path d="M871.355 491.318C890.828 496.863 910.652 501.029 930.348 503.667C973.783 509.493 1014.83 507.996 1052.34 499.213C1082.88 492.062 1108.59 479.551 1128.75 462.02C1137.98 453.999 1145.81 444.643 1153.38 435.589C1159.52 428.246 1165.88 420.65 1172.86 413.941C1187.3 400.063 1207.49 397.798 1234.59 406.991C1276.45 421.203 1317.08 447.305 1356.37 472.554C1367.14 479.474 1378.28 486.624 1389.04 493.262C1401.09 500.689 1413.34 508.363 1425.17 515.782C1471.32 544.701 1519.04 574.604 1568.49 598.387C1616.98 621.706 1657.98 633.28 1697.53 634.809C1732.73 636.165 1765.82 630.393 1802.34 623.289C1836.61 616.618 1871.8 610.546 1905.83 604.676C1961.88 595.003 2019.84 585.001 2075.6 572.013L2074.35 569.014C2018.7 581.98 1960.79 591.972 1904.78 601.635C1870.73 607.511 1835.53 613.585 1801.22 620.258C1764.93 627.32 1732.07 633.057 1697.26 631.713C1658.3 630.207 1617.82 618.767 1569.86 595.699C1520.62 572.016 1473 542.177 1426.95 513.319C1415.1 505.89 1402.85 498.216 1390.8 490.785C1380.06 484.169 1368.94 477.024 1358.19 470.116C1318.69 444.736 1277.84 418.486 1235.49 404.116C1207.35 394.561 1185.38 397.116 1170.2 411.704C1163.11 418.514 1156.71 426.167 1150.52 433.565C1143.02 442.533 1135.26 451.809 1126.19 459.686C1106.4 476.898 1081.14 489.185 1051.1 496.212C978.874 513.117 889.405 501.872 811.773 466.125C737.96 432.136 676.11 377.084 616.295 323.846C580.794 292.25 544.09 259.579 505.432 231.853C416.243 167.888 305.794 118.837 177.145 86.0899C127.346 73.4078 76.5765 74.1094 27.48 74.7862C-16.9779 75.399 -62.9411 76.0344 -108.119 66.7483C-181.338 51.6958 -258.46 11.4824 -331.137 -49.5602C-401.947 -109.031 -447.661 -175.01 -467.011 -245.663L-470.391 -245.285C-460.193 -208.042 -442.674 -171.842 -418.325 -137.688C-396.058 -106.452 -367.47 -76.0853 -333.36 -47.4422C-298.976 -18.5648 -263.549 5.80357 -228.067 24.9741C-188.043 46.6034 -147.82 61.6724 -108.503 69.7471C-62.8999 79.1165 -16.7115 78.4827 27.9513 77.8656C76.7924 77.1913 127.292 76.494 176.569 89.0402C304.7 121.665 414.685 170.49 503.451 234.153C541.941 261.756 578.568 294.355 613.982 325.882C674.019 379.321 736.098 434.576 810.477 468.826C829.94 477.79 850.449 485.34 871.375 491.299L871.355 491.318Z" fill="white" fill-opacity="0.1"></path><path d="M867.71 512.8C928.368 530.083 992.77 534.106 1051.7 523.595C1086 517.475 1115.45 505.966 1139.25 489.39C1148.38 483.031 1156.57 475.425 1164.48 468.073C1172.36 460.755 1180.5 453.182 1189.39 447.085C1207.88 434.377 1229.16 433.326 1258.39 443.684C1302.73 459.397 1345.62 486.874 1387.11 513.442C1397.45 520.065 1408.14 526.912 1418.51 533.343C1430.7 540.897 1443.08 548.734 1455.06 556.318C1498.78 583.986 1543.99 612.598 1590.99 634.919C1635.95 656.271 1673.93 666.127 1710.5 665.941C1745.68 665.764 1779.87 656.744 1810.03 648.788L1810.11 648.766C1850.79 638.039 1892.85 626.942 1934.91 617.779C1950.78 614.322 1966.98 611 1982.66 607.784C2013.34 601.495 2045.06 594.99 2075.76 587.17L2074.45 584.19C2043.82 591.982 2012.14 598.479 1981.5 604.766C1965.81 607.98 1949.6 611.306 1933.71 614.769C1891.57 623.948 1849.47 635.053 1808.76 645.79L1808.69 645.811C1778.73 653.714 1744.77 662.668 1710.06 662.847C1674.11 663.031 1636.7 653.305 1592.33 632.225C1545.56 610.013 1500.46 581.47 1456.84 553.863C1444.86 546.277 1432.46 538.43 1420.26 530.866C1409.92 524.45 1399.24 517.611 1388.91 510.998C1347.22 484.305 1304.12 456.699 1259.33 440.819C1228.83 430.006 1206.54 431.156 1187.06 444.543C1178.01 450.761 1169.79 458.401 1161.83 465.791C1153.99 473.08 1145.88 480.619 1136.91 486.864C1113.49 503.183 1084.46 514.518 1050.64 520.556C971.389 534.696 882.135 522.283 805.768 486.503C732.255 452.055 670.478 397.407 610.733 344.558C574.469 312.483 536.976 279.313 497.369 251.158C450.379 217.756 397.388 188.774 339.872 165.021C286.517 142.987 228.672 125.196 167.955 112.141C125.346 102.981 84.9496 103.907 42.1881 104.892C36.5809 105.023 30.96 105.15 25.3146 105.257C-20.3661 106.118 -69.3239 105.431 -117.812 94.7398C-190.585 78.7011 -266.9 36.1224 -338.517 -28.3747C-408.054 -90.9958 -452.722 -159.236 -471.275 -231.207L-474.666 -230.871C-455.943 -158.263 -410.914 -89.4498 -340.842 -26.3446C-307.228 3.92937 -272.464 29.5525 -237.515 49.8243C-197.631 72.955 -157.506 89.072 -118.253 97.7329C-69.3559 108.515 -20.1155 109.207 25.8069 108.34C31.4523 108.233 37.0814 108.102 42.6954 107.974C85.222 106.997 125.386 106.067 167.531 115.126C294.295 142.385 404.61 188.928 495.4 253.465C534.834 281.496 572.248 314.593 608.433 346.602C668.389 399.642 730.389 454.486 804.446 489.188C824.772 498.712 846.008 506.597 867.714 512.782L867.71 512.8Z" fill="white" fill-opacity="0.1"></path><path d="M862.81 534.684C921.83 551.514 985.866 556.213 1048.74 547.85C1084.83 543.046 1116.65 533.576 1143.31 519.696C1155.06 513.579 1165.94 506.054 1176.45 498.774C1185.67 492.398 1195.2 485.805 1205.17 480.273C1225.83 468.829 1250.23 468.953 1281.95 480.678C1328.76 497.969 1373.81 526.867 1417.38 554.815C1426.78 560.838 1436.48 567.071 1445.92 572.988C1457.93 580.519 1470.15 588.364 1481.95 595.956C1523.01 622.34 1565.47 649.625 1609.81 670.422C1651.76 690.101 1688.96 698.603 1723.55 696.406C1755.92 694.352 1786.26 684.185 1815.6 674.357L1816.23 674.147C1855.53 660.977 1894.1 648.273 1933.92 637.623C1955.19 631.938 1977.01 626.643 1998.12 621.527C2023.51 615.37 2049.77 609.006 2075.28 601.897L2073.9 598.924C2048.45 606.02 2022.21 612.377 1996.85 618.525C1975.73 623.649 1953.88 628.943 1932.57 634.643C1892.66 645.316 1854.03 658.036 1814.68 671.222L1814.05 671.431C1784.92 681.195 1754.8 691.286 1722.9 693.31C1689 695.458 1652.44 687.087 1611.13 667.708C1567.05 647.033 1524.71 619.824 1483.76 593.511C1471.94 585.916 1459.72 578.06 1447.7 570.52C1438.28 564.614 1428.57 558.39 1419.19 552.37C1375.44 524.299 1330.19 495.276 1282.96 477.827C1250.08 465.686 1224.71 465.606 1203.1 477.583C1193 483.184 1183.41 489.818 1174.13 496.237C1163.69 503.465 1152.89 510.934 1141.31 516.969C1114.98 530.675 1083.54 540.036 1047.85 544.784C961.488 556.278 872.937 542.916 798.51 507.175C725.582 472.15 663.979 417.991 604.399 365.61C567.203 332.903 528.731 299.085 487.989 270.384C440.623 237.015 387.478 208.638 330.019 186.047C275.947 164.787 217.892 148.559 157.463 137.822C117.592 130.74 77.8472 131.905 39.4083 133.028C31.1896 133.269 22.6922 133.518 14.3085 133.686C-28.5147 134.533 -78.9996 133.805 -128.808 121.997C-201.709 104.71 -277.304 59.8844 -347.397 -7.62291C-415.881 -73.5774 -459.465 -144.333 -476.946 -217.919L-480.348 -217.631C-462.723 -143.42 -418.811 -72.1055 -349.821 -5.6674C-316.987 25.9528 -282.835 52.7932 -248.312 74.1121C-208.771 98.5281 -168.735 115.648 -129.329 124.992C-79.0805 136.913 -28.2828 137.642 14.789 136.79C23.1946 136.622 31.6988 136.375 39.9257 136.131C78.1679 135.008 117.708 133.848 157.179 140.866C281.138 162.897 394.852 208.49 486.033 272.731C526.599 301.312 564.98 335.055 602.105 367.691C661.891 420.25 723.711 474.603 797.15 509.868C818.051 519.908 840.063 528.197 862.816 534.686L862.81 534.684Z" fill="white" fill-opacity="0.1"></path><path d="M861.17 556.737C888.589 564.561 917.358 569.859 947.292 572.579C1000.19 577.389 1054.83 573.592 1105.33 561.608C1138.57 553.718 1166.6 539.975 1196.27 525.433C1200.42 523.398 1204.59 521.355 1208.79 519.322C1240 504.2 1271.11 503.767 1306.69 517.949C1357.65 538.268 1405.96 569.146 1452.67 599.009C1459.2 603.178 1465.94 607.492 1472.54 611.675C1484.18 619.05 1496.01 626.779 1507.46 634.251C1545.64 659.172 1585.12 684.94 1626.55 704.041C1664.79 721.674 1699.06 728.818 1731.32 725.877C1763.77 722.921 1793.49 711.038 1822.24 699.545L1823.06 699.214C1862.57 683.416 1898.36 669.367 1936.37 657.393C1961.89 649.355 1988.24 642.086 2013.72 635.055C2034.26 629.394 2055.5 623.534 2076.2 617.295L2074.75 614.34C2054.09 620.565 2032.86 626.417 2012.34 632.078C1986.83 639.113 1960.45 646.386 1934.88 654.448C1896.76 666.462 1860.91 680.536 1821.34 696.353L1820.52 696.685C1792 708.087 1762.51 719.883 1730.57 722.79C1699.02 725.663 1665.43 718.642 1627.86 701.321C1586.71 682.351 1547.36 656.663 1509.3 631.828C1497.84 624.346 1485.99 616.614 1474.34 609.227C1467.75 605.054 1461.01 600.74 1454.48 596.571C1407.6 566.602 1359.12 535.614 1307.8 515.147C1271.12 500.52 1239.04 500.967 1206.87 516.562C1202.67 518.595 1198.5 520.642 1194.34 522.675C1164.84 537.14 1136.96 550.8 1104.08 558.605C999.189 583.502 882.76 571.743 792.647 527.158C720.64 491.53 659.309 438.302 599.994 386.819C561.583 353.484 521.867 319.01 479.701 289.734C431.94 256.573 378.585 228.882 321.117 207.424C266.482 187.025 208.254 172.29 148.055 163.625C105.741 157.536 63.2784 158.571 22.207 159.576C-30.2862 160.862 -84.5671 162.19 -138.618 148.527C-231.227 125.12 -307.645 62.1054 -355.424 13.3671C-422.898 -55.4504 -465.471 -128.473 -481.968 -203.666L-485.382 -203.427C-476.802 -164.309 -460.887 -125.159 -438.074 -87.0651C-417.083 -52.0119 -390.117 -17.5864 -357.927 15.2493C-325.86 47.9557 -292.233 75.8137 -257.995 98.0498C-218.768 123.52 -178.799 141.507 -139.187 151.515C-84.5928 165.313 -30.0401 163.975 22.7224 162.691C63.6325 161.69 105.927 160.657 147.911 166.695C271.083 184.427 385.148 227.794 477.776 292.102C519.759 321.257 559.393 355.651 597.724 388.918C657.234 440.564 718.77 493.976 791.255 529.835C813.375 540.78 836.749 549.763 861.198 556.739L861.17 556.737Z" fill="white" fill-opacity="0.1"></path></svg>